<?xml version="1.0" standalone="no"?><!DOCTYPE svg PUBLIC "-//W3C//DTD SVG 1.1//EN" "http://www.w3.org/Graphics/SVG/1.1/DTD/svg11.dtd"><svg t="1563154699538" class="icon" viewBox="0 0 1024 1024" version="1.1" xmlns="http://www.w3.org/2000/svg" p-id="2002" xmlns:xlink="http://www.w3.org/1999/xlink" width="128" height="128"><defs><style type="text/css"></style></defs><path d="M64 832h320v64H0V672h64zM0 128v224h64V192h320v-64z m960 704H640v64h384V672h-64zM640 128v64h320v160h64V128zM396.9 509.3c0 105.2-68.4 152.3-136.2 152.3-77.9 0-132.4-60.6-132.4-147.3 0-89.5 56-151.9 136.2-151.9 78 0 132.4 60.4 132.4 146.9zM263 421.6c-49.4 0-67 49.5-67 91.9s20.8 88.8 66.6 88.8 67-46 67-91.5c0-42.9-20.8-89.2-66.6-89.2z m382.8 180.9l-4.9-18.9-17.5 8.5c-11.5 5.6-30.1 9.1-47.6 9.1-53 0-83.5-32.1-83.5-88.1s31.8-90.8 85-90.8c23 0 38.2 5.7 45.3 9.2l17 8.2 5.4-18.1 8.1-27.3 3.7-12.6-11.8-6c-7.7-4-29.8-13.3-68.9-13.3-89 0-151.2 62.5-151.2 151.9s56.5 147 143.9 147c29.7 0 58-5.2 75.5-14l11.6-5.8-3.2-12.5z m260.6 55h-70.6l-4.6-8c-4.8-8.3-10-26.3-19.1-66.5-6.8-31.5-16.4-36.9-36.2-37.7h-15.5v112.1H695V373l12.8-2.6c17.5-3.6 42.6-5.7 67.3-5.7 39.9 0 66.3 7.8 85.5 25.1 16.6 14.7 25.8 36.4 25.8 61.2 0 28.1-12.7 52.5-34.4 68.3 10.8 11.3 18.5 27.2 23.2 47.5 5.7 24.4 13.5 57.9 18.5 67.1z m-128.9-235c-6.8 0-12.5 0.3-17 0.7v64.9h18.2c26.5 0 42.4-12.4 42.4-33.2-0.1-8.8-0.1-32-43.6-32.5z" fill="#0a40e7" p-id="2003"></path></svg>