<svg id="图层_1" data-name="图层 1" xmlns="http://www.w3.org/2000/svg" viewBox="0 0 200 200"><defs><style>.cls-1,.cls-7{fill:#209bfa;}.cls-11,.cls-2,.cls-4,.cls-5{fill:none;}.cls-10,.cls-11,.cls-12,.cls-2,.cls-6,.cls-7{stroke:#fff;}.cls-11,.cls-12,.cls-2,.cls-4,.cls-5,.cls-6{stroke-linecap:round;stroke-linejoin:round;}.cls-2,.cls-4,.cls-5,.cls-6{stroke-width:0.8px;}.cls-12,.cls-3,.cls-6{fill:#fff;}.cls-4{stroke:#f26716;}.cls-5{stroke:#209bfa;}.cls-10,.cls-7{stroke-miterlimit:10;}.cls-8{fill:#f26716;}.cls-10,.cls-9{fill:#f26c16;}.cls-11,.cls-12{stroke-width:0.15px;}</style></defs><title>自动抓取</title><rect class="cls-1" width="200" height="200" rx="4"/><path class="cls-2" d="M27.87,107.33v-1.9c-.13-.26-.26-.53-.4-.79v-1.2a13,13,0,0,1,2-.62c.93-.26,1.88-.48,2.83-.66a1.13,1.13,0,0,0,.57.15l.28,0h.6l1,0h.2l.49,0h.07l.48,0H36l.46,0h.2l.45,0,1.62-.06,1.43,0,1.61,0c3.72-.08,7.43-.12,11.15-.1q6.39,0,12.78.14c1.35,0,2.71.12,4.06.24a7.73,7.73,0,0,1,1.43.22,9.51,9.51,0,0,1,1.36.47A7.76,7.76,0,0,1,75,104.59a6.78,6.78,0,0,1,2.09,4.82v11.94a9.52,9.52,0,0,0,.14,1.6c0,.14,0,.27.09.4l.09.31c0,.11.16.48.34.48h.71v4"/><path class="cls-3" d="M93,46.87q3.77,3.26,7.51,6.53l2.41,2.09a4.88,4.88,0,0,0-.09.93,5.82,5.82,0,0,0,.35,1.93,9.29,9.29,0,0,0,2.75,4l23.42,20.38a2.51,2.51,0,0,0,.32.25,3.13,3.13,0,0,0,.34.21,4.14,4.14,0,0,0,.82.33,10,10,0,0,0,2.25.35,22.37,22.37,0,0,1,2.71.25,6,6,0,0,1-.73,11.82,18.12,18.12,0,0,1-2.33,0,14.67,14.67,0,0,1-1.47-.16,12.49,12.49,0,0,1-1.38-.28,9.87,9.87,0,0,1-1.33-.44,7.36,7.36,0,0,1-1.23-.6,7.59,7.59,0,0,1-1.11-.77s0,0,0,0l-.19-.16L108.38,78.17l-9.22-8-5.11-4.44-2.9-2.54"/><path class="cls-3" d="M139.71,86.77h5.19v15.92H127a3.59,3.59,0,0,1,0-7.17h2.86"/><path class="cls-2" d="M61.52,60.65a.31.31,0,0,1,0-.23s0,0,0,0,0,0,0,0l0-.09.07-.16c.35-.94.71-1.89,1.07-2.84l1.8-4.8.39-1A7.17,7.17,0,0,1,78.14,51l1,2.24c.19.43.38.86.58,1.29a6,6,0,0,1,.15,4.57L67.56,91.82c-.35.92-.7,1.84-1,2.76a3.27,3.27,0,0,1-.14.33,4,4,0,0,1-2.13,2l-5,2a4,4,0,0,0-.55.27,2.71,2.71,0,0,0-1,1,4.72,4.72,0,0,0-.27.61c-.15.39-.3.78-.44,1.17"/><path class="cls-2" d="M27.87,110.51v-1.79"/><path class="cls-2" d="M27.87,113.69V111.9"/><path class="cls-2" d="M27.87,116.88v-1.79"/><path class="cls-2" d="M28.07,117.27l-.19-.39.19.39v.6l-.19.39"/><polygon class="cls-3" points="82.78 152.79 82.8 130.11 75.64 130.11 30.26 130.11 23.1 130.11 23.1 134.49 23.1 148.42 23.11 152.79 30.26 152.79 75.64 152.79 82.78 152.79"/><polyline class="cls-2" points="28.07 114.09 27.88 113.7 28.07 114.09 28.07 114.69"/><line class="cls-2" x1="27.88" y1="115.07" x2="28.07" y2="114.69"/><line class="cls-2" x1="28.07" y1="111.5" x2="27.88" y2="111.89"/><line class="cls-2" x1="28.07" y1="108.32" x2="27.88" y2="108.7"/><path class="cls-2" d="M27.87,120.06v-1.79c.07-.13.13-.26.2-.4"/><path class="cls-4" d="M30.37,121.05"/><path class="cls-2" d="M27.87,121.45"/><path class="cls-2" d="M32.31,102.15l.34-.06L33,102a.08.08,0,0,1,.08,0l.18.06a1.27,1.27,0,0,0,.28.06,5,5,0,0,0,.55,0l1.11,0c1.73-.07,3.46-.16,5.2-.2.46,0,.91,0,1.36,0,3.72-.08,7.43-.11,11.15-.1q6.25,0,12.52.14c1.53,0,3,.15,4.57.29"/><path class="cls-2" d="M71.26,128.12H26.48v1.19H79.42v-1.19H71.26V109.41a5.44,5.44,0,0,0-2.44-4.86,11,11,0,0,0-5.52-1.11H27.49"/><path class="cls-2" d="M28.07,124.24l-.2.4v1.49l-.39.8"/><polyline class="cls-2" points="27.88 123.26 28.07 123.64 28.07 124.24"/><path class="cls-2" d="M27.87,123.25v-1.8l.2-.39"/><path class="cls-4" d="M30.37,123.64"/><path class="cls-2" d="M27.87,124.64"/><polyline class="cls-2" points="27.88 120.07 28.07 120.46 28.07 121.05"/><polyline class="cls-2" points="27.87 110.51 28.07 110.91 28.07 111.5"/><polyline class="cls-2" points="27.87 107.33 28.07 107.72 28.07 108.32"/><path class="cls-3" d="M63.62,105.83H49.88v0l-.2,0H36.15A3.18,3.18,0,0,0,33,109v13.52a3.18,3.18,0,0,0,3.18,3.19H63.62a3.18,3.18,0,0,0,3.18-3.19V109A3.18,3.18,0,0,0,63.62,105.83Z"/><path class="cls-4" d="M57.56,100.44a2.76,2.76,0,0,1,.08-.27,2,2,0,0,0,.14,1.68"/><path class="cls-2" d="M79.68,66.39c.22,2.15.44,4.29.67,6.44a3.12,3.12,0,0,1-.19,1.45l-10.53,28"/><path class="cls-2" d="M28.07,120.46"/><path class="cls-2" d="M28.07,110.91"/><path class="cls-2" d="M28.07,107.72"/><path class="cls-3" d="M133.26,84.57l.47-.11A5.59,5.59,0,0,1,139.88,88s0,0,0,0a3.68,3.68,0,0,1,.15.47,5.57,5.57,0,1,1-9.57-2.19c.1-.12.21-.23.33-.35A5.25,5.25,0,0,1,133.26,84.57Z"/><circle class="cls-5" cx="134.56" cy="89.85" r="3.87" transform="translate(35.4 217.71) rotate(-85.93)"/><circle class="cls-2" cx="126.99" cy="99.1" r="3.18"/><path class="cls-6" d="M124.3,97.65l-1.15-1"/><path class="cls-4" d="M128.2,102.69"/><path class="cls-3" d="M89.3,64.62l33,28.71a2,2,0,0,1,.68,1.32c0,.49.08,1,.13,1.47a.52.52,0,0,1-.86.43L86.94,65.83"/><path class="cls-7" d="M77.4,65.67A12.74,12.74,0,1,0,73.34,45a7.68,7.68,0,0,1-3.29,2"/><path class="cls-4" d="M75.37,54.41a.09.09,0,0,0,0,.05"/><path class="cls-4" d="M48,129.31"/><path class="cls-4" d="M48,130.11"/><path class="cls-4" d="M46.68,129.31"/><path class="cls-4" d="M46.68,130.11"/><path class="cls-4" d="M51.52,129.31"/><path class="cls-4" d="M51.52,130.11"/><path class="cls-4" d="M50.25,129.31"/><path class="cls-4" d="M50.25,130.11"/><path class="cls-4" d="M61.27,129.31"/><path class="cls-4" d="M61.27,130.11"/><path class="cls-4" d="M59.21,129.31"/><path class="cls-4" d="M59.21,130.11"/><path class="cls-4" d="M44.62,129.31"/><path class="cls-4" d="M44.62,130.11"/><path class="cls-4" d="M54.37,129.31"/><path class="cls-4" d="M54.37,130.11"/><path class="cls-4" d="M55.64,129.31"/><path class="cls-4" d="M55.64,130.11"/><path class="cls-4" d="M49.28,106.23"/><line class="cls-2" x1="27.48" y1="126.93" x2="27.48" y2="128.12"/><path class="cls-3" d="M73.8,47.13A10.94,10.94,0,1,1,78,64"/><line class="cls-2" x1="84.36" y1="66.52" x2="70.85" y2="102.37"/><path class="cls-4" d="M61.15,129.31"/><path class="cls-4" d="M61.15,130.11"/><path class="cls-4" d="M59.87,130.11"/><path class="cls-4" d="M59.87,129.31"/><path class="cls-4" d="M46,129.31"/><path class="cls-4" d="M46,130.11"/><path class="cls-4" d="M44.75,130.11"/><path class="cls-4" d="M44.75,129.31"/><path class="cls-4" d="M58.13,130.11"/><path class="cls-4" d="M58.13,129.31"/><path class="cls-4" d="M51.34,129.31"/><path class="cls-4" d="M51.34,130.11"/><path class="cls-4" d="M47.77,129.31"/><path class="cls-4" d="M47.77,130.11"/><path class="cls-2" d="M62.92,57.33l2.49,6.86c.92,2.54,1.28,3.78.27,6.44L61,83c-.1.27-.21.54-.33.8a6.23,6.23,0,0,1-.32.63,5.51,5.51,0,0,1-.82,1,7.15,7.15,0,0,1-1.17,1,18.78,18.78,0,0,1-1.73,1l-.3.16L53.66,89l-2.2,1.18"/><path class="cls-4" d="M54.56,130.11"/><path class="cls-4" d="M54.56,129.31"/><path class="cls-7" d="M77.76,56.26a6.57,6.57,0,1,0-8.46,3.83A6.57,6.57,0,0,0,77.76,56.26Z"/><circle class="cls-3" cx="71.62" cy="53.95" r="3.78"/><path class="cls-2" d="M62,62.33l-.49-1.66c.48,1.62,1,3.24,1.43,4.86a6.13,6.13,0,0,1,.33,1.94c0,.15,0,.29-.05.44a4.35,4.35,0,0,1-.1.52,10.06,10.06,0,0,1-.35,1.1L58.12,81.88a4.47,4.47,0,0,1-2.82,3l-1.74.86-.76.37a.39.39,0,0,0-.2.22c-.35.93-.7,1.85-1,2.77,0,0,0,0,0,0a.33.33,0,0,1,0,.1,4.14,4.14,0,0,1-.09.46c-.07.24-.14.47-.22.7-.25.78-.54,1.54-.83,2.31L47,101.86"/><path class="cls-4" d="M62.05,59"/><path class="cls-8" d="M76.54,59.47c-3.58,1.7-5.21,4.37-5.67,8.24l3.93-.54,3.55-3.49c-.67-1.15-1.34-2.31-2-3.45-4.75,3.61-8,10.68-9.61,16.32l3.93.53c-.19-4.42,1.58-8.55,2.93-12.67l-3.86-1.07c-1.25,4.12-3.12,7.71-3.41,12-.13,1.9,2.93,2.84,3.73,1,1.22-2.83,2.36-5.67,3.42-8.56.8-2.16-2.54-3.46-3.65-1.54a178.33,178.33,0,0,0-8.05,16.21,2,2,0,0,0,3.14,2.42c4.86-4.49,5-10.63,6.25-16.76l-3.93-.53c.67,6-1.55,11-3.54,16.55l3.86,1.06Q69.16,80,71.05,74.78c.81-2.21-2.48-3.38-3.65-1.54-4.47,7-6.29,14.59-12.51,20.52l2.83,2.83a26.61,26.61,0,0,1,2.43-2.66c1.8-1.85-1-4.68-2.83-2.83a25.55,25.55,0,0,0-2.43,2.66c-1.65,1.94.94,4.63,2.83,2.83,6.46-6.16,8.47-14,13.13-21.33L67.2,73.72q-1.89,5.19-3.52,10.47c-.76,2.49,3,3.46,3.86,1.07,2.1-5.84,4.38-11.32,3.68-17.61-.23-2.06-3.42-2.93-3.93-.54-1.11,5.26-1,11.09-5.22,15l3.14,2.43a178.33,178.33,0,0,1,8.05-16.21L69.6,66.78c-.94,2.57-1.94,5.08-3,7.6l3.73,1c.26-3.88,2.16-7.32,3.27-11,.76-2.47-3.06-3.49-3.85-1.06-1.5,4.57-3.28,8.87-3.08,13.73a2,2,0,0,0,3.93.54c1.21-4.16,4.3-11.3,7.77-13.93a2,2,0,0,0-2-3.45c-3,1.36-6.9,4.26-5.39,8a2,2,0,0,0,3.92-.53l3.69-4.79c2.33-1.11.3-4.56-2-3.45Z"/><path class="cls-8" d="M72.2,64.71c-.7,6.23-4.78,11.47-6.69,17.34-.79,2.46,3.07,3.51,3.86,1.07,2-6.33,6.07-11.67,6.83-18.41.28-2.55-3.72-2.53-4,0Z"/><path class="cls-8" d="M66.37,62.92c2.57,0,2.58-4,0-4s-2.58,4,0,4Z"/><path class="cls-8" d="M68.06,63.83c2.57,0,2.58-4,0-4s-2.58,4,0,4Z"/><path class="cls-8" d="M66.12,62.68A3.06,3.06,0,0,0,67.78,64c2.38,1,3.42-2.9,1.06-3.85L68.55,60l1.2.92-.17-.26c-1.41-2.15-4.87-.15-3.46,2Z"/><path class="cls-8" d="M72.06,65.82c0,.17.1.34.14.51.68,2.48,4.54,1.43,3.86-1.06,0-.17-.09-.34-.14-.52-.67-2.48-4.53-1.42-3.86,1.07Z"/><path class="cls-8" d="M72.17,65.25v.4c0,2.58,4,2.58,4,0v-.4c0-2.57-4-2.58-4,0Z"/><path class="cls-8" d="M64.32,77.86a6.75,6.75,0,0,1-.54,1.23c-1.15,2.3,2.3,4.33,3.45,2a21.29,21.29,0,0,0,1-2.19c.89-2.42-3-3.46-3.86-1.06Z"/><path class="cls-8" d="M58.2,87.36A30.4,30.4,0,0,1,54.6,92a15.65,15.65,0,0,0-3.1,3.79c-1.13,2.3,2.32,4.33,3.45,2,.78-1.6,2.28-2.71,3.43-4a37.68,37.68,0,0,0,3.28-4.39c1.39-2.17-2.07-4.18-3.46-2Z"/><path class="cls-8" d="M58.15,86.83a13.16,13.16,0,0,0-4.51,3.66,20.3,20.3,0,0,0-2.78,6.38l3.92.53.06-.61c.21-2.57-3.79-2.56-4,0l-.06.61c-.19,2.28,3.37,2.68,3.93.53a18.38,18.38,0,0,1,2-4.81,8.77,8.77,0,0,1,3.46-2.83c2.24-1.28.22-4.74-2-3.46Z"/><path class="cls-8" d="M49.46,99.83c1.93,3.2,7.63.07,9.42-1.88,1.62-1.76,3.44-3.15,4.91-5.1,1.6-2.11,3.79-3.88,5.1-6.18s-2.19-4.26-3.45-2a24.61,24.61,0,0,1-3,3.49c-1.14,1.33-2,2.87-3.25,4.13-1.83,1.91-4.83,5.16-7.79,4.82l1.73,1c-.06-.09-.11-.18-.16-.27-1.34-2.2-4.8-.19-3.46,2Z"/><path class="cls-3" d="M65.32,85.82c-.07,2.93-2,4.87-4.6,5.85-2.39.9-1.35,4.76,1.06,3.85,4.3-1.62,7.42-4.87,7.54-9.7.07-2.57-3.93-2.57-4,0Z"/><path class="cls-8" d="M62.9,91.17a8.65,8.65,0,0,1,.09,1.9c.2-.48.39-.95.59-1.42a7.8,7.8,0,0,1-3.34,1.4,18.72,18.72,0,0,0-3.33,1.49c-2.27,1.22-.25,4.67,2,3.45,1.81-1,3.84-1.25,5.64-2.21,2.12-1.13,2.58-2.28,2.33-4.62-.28-2.53-4.28-2.55-4,0Z"/><path class="cls-8" d="M64.89,84.51a24.38,24.38,0,0,0-2,6.72c-.36,2.52,3.5,3.6,3.86,1.06a21.3,21.3,0,0,1,1.62-5.76c1.06-2.33-2.39-4.37-3.45-2Z"/><path class="cls-8" d="M65.42,93.37c2.57,0,2.58-4,0-4s-2.58,4,0,4Z"/><path class="cls-8" d="M55.56,98c-.84,0-1.58-.6-2.44-.63s-1.6.35-2.4,0c-2.4-.94-3.44,2.93-1.06,3.85,1.17.45,2,.07,3.18.09.88,0,1.74.64,2.72.64,2.57,0,2.58-4,0-4Z"/><path class="cls-8" d="M48.36,101.46l.06.07c1.82,1.82,4.65-1,2.83-2.83l-.07-.07c-1.82-1.82-4.65,1-2.82,2.83Z"/><path class="cls-8" d="M49.29,102.37c2.57,0,2.58-4,0-4s-2.58,4,0,4Z"/><path class="cls-8" d="M69.34,83.27c2.57,0,2.58-4,0-4s-2.58,4,0,4Z"/><path class="cls-8" d="M68.16,86c2.57,0,2.58-4,0-4s-2.58,4,0,4Z"/><path class="cls-3" d="M65.82,57.47a3,3,0,0,1-.42-2,1,1,0,0,0-2,0c0,.17,0,.33,0,.49a.92.92,0,0,0-.29.69,4.58,4.58,0,0,0,.22,1.64.92.92,0,0,0,1.17.67C65.32,59.76,66.57,58.42,65.82,57.47Z"/><path class="cls-3" d="M76.63,58.57a3.49,3.49,0,0,1-.35.32,3.15,3.15,0,0,0-1,.67h0a7.57,7.57,0,0,1-1.38.57c-.74.18-1.48.35-2.23.5l-.1,0h0a1.3,1.3,0,0,0-.35.11l-.31,0a20.12,20.12,0,0,1-2-.64,2,2,0,0,0-.76-.12,1.71,1.71,0,0,0-.88-.86,1.86,1.86,0,0,0-1.92-1.83c-2.19,0-2.52,2.89-1,3.75a2.07,2.07,0,0,0,.07.41,8.73,8.73,0,0,0,1.23,2.33,20.29,20.29,0,0,0,.6,3,17.25,17.25,0,0,1,.2,2.18A2.11,2.11,0,0,0,66,70.41a5,5,0,0,0-.81,2,2.14,2.14,0,0,0,0,.44l-.2.44a37.21,37.21,0,0,0-1.41,3.87,1.86,1.86,0,0,0-.85,1.59v.09a1.81,1.81,0,0,0-.64.78,5,5,0,0,0-.57,2.6c-1.37,2.19-3,4.26-4.47,6.38a1.68,1.68,0,0,0-1.64-.22,6.36,6.36,0,0,0-1.66.86,2.67,2.67,0,0,0-.54.07c-2.8.78-2.32,2.88-3.09,5.1-.62,1.78-2.26,3.78-1.32,5.56a2.1,2.1,0,0,0,2.45,1.72,13.57,13.57,0,0,1,2.2-.23,2,2,0,0,0,1.16-.4c.87.68,2.36.9,3.36-1.1.63-1.26,1.34-1.09,2.63-1.53a1.84,1.84,0,0,0,.59-.31,1.58,1.58,0,0,0,1.5-1.1,3.81,3.81,0,0,0,.79-.17,7.62,7.62,0,0,0,2.42-1.48,1.65,1.65,0,0,0,.39-2.24,2,2,0,0,0-.72-3.78,13.23,13.23,0,0,0,2.26-2.29,1.93,1.93,0,0,0,1.75-2.32l.23-.62a2.08,2.08,0,0,0,.83-2.27l.18-.49.09-.17a2.07,2.07,0,0,0,.71-1.47c.57-1.25,1.11-2.51,1.78-3.71a1.9,1.9,0,0,0,.22-1.38c.35-.65.68-1.31,1-2,.56-1.34.75-3,1.54-4.21a1.72,1.72,0,0,0,.31-1.3c.45-1,.91-2,1.39-3a2,2,0,0,0,.2-1.12,3.29,3.29,0,0,0,1.65-1.9.86.86,0,0,0,0-.17C80.82,59.14,78.26,56.79,76.63,58.57Zm-13.53,34a4.18,4.18,0,0,1-2.09.81,28.13,28.13,0,0,1,2.51-2.32,2.17,2.17,0,0,0,.15,1.18A2.39,2.39,0,0,0,63.1,92.57ZM71,66.63c0-.12,0-.23,0-.35l.28-.1C71.14,66.33,71.07,66.48,71,66.63Z"/><path class="cls-3" d="M64.66,55.57A13.43,13.43,0,0,1,65,53.3a.5.5,0,0,0-1-.27,16.78,16.78,0,0,0-.4,2.54C63.62,56.21,64.62,56.21,64.66,55.57Z"/><path class="cls-8" d="M77.24,63.47c-.39,1-.94,1.94-1.43,2.9-.29.57.57,1.08.87.5.52-1,1.1-2.05,1.53-3.14.23-.59-.73-.85-1-.26Z"/><path class="cls-8" d="M77.52,63.39c-.38.94-.8,1.84-1.26,2.74-.29.58.57,1.08.86.51.5-1,.95-2,1.37-3,.24-.59-.73-.85-1-.26Z"/><path class="cls-3" d="M78.09,63.33c-.58,1.14-1.2,2.26-1.86,3.35-.34.55.53,1,.86.5.67-1.09,1.28-2.2,1.86-3.34.29-.57-.57-1.08-.86-.51Z"/><path class="cls-3" d="M74.47,47.09h0a.46.46,0,0,0-.2,0s-.06,0-.1,0a.45.45,0,0,0-.46.35.49.49,0,0,0,.44.7.42.42,0,0,0,.26-.07A.51.51,0,0,0,74.47,47.09Z"/><path class="cls-3" d="M123,96.89a.4.4,0,0,0,0-.8.4.4,0,0,0,0,.8Z"/><path class="cls-8" d="M80,67.23c.12,1,.22,2,.28,3,0,.43.68.57.78.11l.61-2.76-.77-.21a4.61,4.61,0,0,1-.24,1.16l.74-.09c-.29-.49-.32-1-.65-1.44s-1,0-.69.41.37,1,.64,1.43a.41.41,0,0,0,.74-.09,5.16,5.16,0,0,0,.23-1.17c.07-.49-.65-.73-.77-.21l-.61,2.76.78.1c-.06-1-.15-2-.28-3-.06-.5-.86-.51-.79,0Z"/><path class="cls-3" d="M83.89,66.77a12.76,12.76,0,0,1-3.75-.22c-.51-.08-.73.68-.22.77l1.58.17c-.21.65-.4,1.3-.58,2a.38.38,0,0,0-.33.38l.07.06a.39.39,0,0,0-.47.39,15.82,15.82,0,0,1,0,3.64.36.36,0,0,0,0,.11.35.35,0,0,0-.09.16l-.72,2.65C79,78,78.27,79.07,77.89,80.2a8.6,8.6,0,0,0-1,2.25.38.38,0,0,0,.2.44c-.29.67-.52,1.33-.73,2a4.47,4.47,0,0,0-1.32,2.53.44.44,0,0,0,.3.49A12.72,12.72,0,0,1,74.27,90c-.28.44.41.84.69.41a16,16,0,0,0,2.22-5.32.4.4,0,0,0,0-.29,1.44,1.44,0,0,0,0-.71.35.35,0,0,0,.5-.16,14.18,14.18,0,0,0,1-3.09c.36-.73.71-1.46,1-2.2q.19-.39.36-.78a2.07,2.07,0,0,0,.34-2.41.44.44,0,0,0,.54-.25c.13-.35.24-.65.34-.94a.35.35,0,0,0,.14-.19c.17-.53.33-1.06.5-1.6a.38.38,0,0,0,.2-.21c.55-1.31,1-2.62,1.51-4a10.49,10.49,0,0,1,.66-.87A.4.4,0,0,0,83.89,66.77Zm-1.37.83h.09l-.09.08Zm-1.29,1.63h0Zm0-.25a.42.42,0,0,0,0,.23v0S81.17,69.15,81.2,69ZM77.84,83.17a.37.37,0,0,0-.19-.44c.08-.18.17-.36.26-.54A2,2,0,0,1,77.84,83.17Z"/><path class="cls-8" d="M77.52,82.2a10.6,10.6,0,0,1-.65,2.91c-.18.49.59.7.77.22a11.23,11.23,0,0,0,.68-3.14c.05-.51-.75-.5-.8,0Z"/><path class="cls-8" d="M77.08,83a7.56,7.56,0,0,0-1,2c-.18.48.6.69.77.21a6.76,6.76,0,0,1,.94-1.81c.3-.42-.39-.82-.69-.4Z"/><path class="cls-8" d="M80.3,75.11c-.37,1.22-.76,2.43-1.14,3.64-.15.5.62.71.78.22.38-1.22.76-2.44,1.13-3.65a.4.4,0,0,0-.77-.21Z"/><path class="cls-8" d="M74.58,89.77a28.72,28.72,0,0,1-1.76,5c-.21.47.48.87.7.41A30.79,30.79,0,0,0,75.36,90a.4.4,0,0,0-.78-.21Z"/><path class="cls-8" d="M73.76,91.06a76.21,76.21,0,0,1-3.39,8.76l.73.31.06-.22a.4.4,0,0,0-.78-.21,1.6,1.6,0,0,1,0,.21c-.1.42.54.74.73.31a77,77,0,0,0,3.47-9c.16-.49-.61-.7-.77-.21Z"/><path class="cls-8" d="M71.66,97c-.41,1.35-.79,2.7-1.15,4.07a.4.4,0,0,0,.77.21c.36-1.37.74-2.72,1.15-4.07.15-.49-.63-.7-.77-.21Z"/><path class="cls-8" d="M70.86,99.75a5.93,5.93,0,0,1-.92,2.11c-.3.42.4.82.69.4a5.92,5.92,0,0,0,1-2.3c.11-.51-.66-.72-.77-.21Z"/><path class="cls-3" d="M71.82,110.94a20.58,20.58,0,0,0-.4,4.29c0,2.6,3.8,2.54,4,0a18.1,18.1,0,0,0-.23-4.29c-.35-2.22-4-1.7-3.93.53.24,4.51.77,9.59-.23,14-.57,2.5,3.29,3.57,3.85,1.06,1.09-4.82.64-10.18.38-15.08l-3.93.54a13.36,13.36,0,0,1,.09,3.22h4a15.15,15.15,0,0,1,.25-3.22c.48-2.52-3.37-3.6-3.85-1.07Z"/><path class="cls-9" d="M76.31,127.94c2.57,0,2.58-4,0-4s-2.57,4,0,4Z"/><path class="cls-9" d="M76.51,128.27c2.57,0,2.58-4,0-4s-2.58,4,0,4Z"/><path class="cls-10" d="M75.13,104.74c-4.74-2.48-9.87-2.44-15.16-2.55-9.9-.22-19.8-.19-29.7-.07a.5.5,0,0,0,0,1c14-.17,28,.87,42,.89a.5.5,0,0,0,.13-1c-2.85-.69-1.59-.58-4.51-.44a.5.5,0,0,0,0,1l6.76,2c.57.3,1.08-.56.51-.86Z"/><path class="cls-3" d="M78.23,125.41a1.89,1.89,0,0,0-1.14-1.71c0-.94-.11-1.88-.14-2.8-.07-1.88-.15-3.76-.22-5.64a1.92,1.92,0,0,0,.34-1.11,22.63,22.63,0,0,0-1-7.68,2,2,0,0,0-.59-.88c0-.09-.07-.17-.1-.25a.55.55,0,0,0-.67-.31,2,2,0,0,0-.6-.43,3.47,3.47,0,0,0-1.57-1.6.51.51,0,0,0-.68.69,6.38,6.38,0,0,0-2.94-.49c-.44,0-.74.71-.25.93,1.43.67,1.66,2.16,2.67,3.07.22,3,.45,5.93.67,8.9a2,2,0,0,0,.83,1.5l.09,2.39c0,1.22.27,2.7.21,4l-.26,0a2,2,0,0,0-1.78,2.81A1.85,1.85,0,0,0,73,128.53a1.82,1.82,0,0,0,1.48-.68,2.06,2.06,0,0,0,.7,0,1.84,1.84,0,0,0,1.4.58A2,2,0,0,0,78.23,125.41Z"/><path class="cls-3" d="M79,128.15,27,128.21a.5.5,0,0,0,0,1l52-.06a.5.5,0,0,0,0-1Z"/><circle class="cls-5" cx="126.92" cy="99.11" r="1.85"/><path class="cls-3" d="M78.61,63.85c3.86,0,3.87-6,0-6s-3.87,6,0,6Z"/><path class="cls-3" d="M75.75,66.2c3.86,0,3.86-6,0-6s-3.87,6,0,6Z"/><path class="cls-3" d="M76.48,65.2c3.86,0,3.87-6,0-6s-3.87,6,0,6Z"/><path class="cls-3" d="M74.89,67.77c3.86,0,3.87-6,0-6s-3.87,6,0,6Z"/><path class="cls-3" d="M71.32,68.87c3.86,0,3.87-6,0-6s-3.87,6,0,6Z"/><path class="cls-3" d="M67.7,65.32c3.86,0,3.87-6,0-6s-3.87,6,0,6Z"/><path class="cls-3" d="M68.26,67.3c3.86,0,3.87-6,0-6s-3.86,6,0,6Z"/><path class="cls-3" d="M70.72,64.71a17.24,17.24,0,0,0-.27,2.49,3,3,0,0,0,3,3,3.08,3.08,0,0,0,3-3,11.55,11.55,0,0,1,.1-1.32l-.11.79.06-.37A3.2,3.2,0,0,0,76.2,64a3,3,0,0,0-4.1-1.08,2.9,2.9,0,0,0-1.38,1.8Z"/><path class="cls-3" d="M62,95.24c3.86,0,3.87-6,0-6s-3.86,6,0,6Z"/><path class="cls-3" d="M58.07,92.7c3.86,0,3.86-6,0-6s-3.87,6,0,6Z"/><path class="cls-3" d="M59.37,91.85c3.86,0,3.87-6,0-6s-3.87,6,0,6Z"/><path class="cls-3" d="M69.09,102.35c-3.63-.91-7.64.37-11.22-.7-2.13-.63-2.92-1.67-5.41-.88a1,1,0,0,0,0,1.93l2.5.61.27-2c-1.25.09-5.87.65-5.29-2.13.22-1-1.34-1.86-1.83-.77l-.59,1.36,1.86.51,0-.49c-.09-1.27-2-1.3-2,0l-.18,1.31a1,1,0,0,0,1.93.53,4.26,4.26,0,0,0,.25-1.84h-2l0,.49c.06.88,1.43,1.49,1.86.5l.6-1.36L48,98.69c-1,4.83,3.25,5,7.22,4.66,1.07-.08,1.42-1.68.27-2L53,100.77v1.93c1.07-.34,3.62.81,4.88,1,3.5.4,7.29-.22,10.69.63a1,1,0,0,0,.53-1.93Z"/><path class="cls-3" d="M49.41,101.43q-8.14.21-16.29.23a1,1,0,0,0,0,2q8.15,0,16.29-.23c1.28,0,1.29-2,0-2Z"/><path class="cls-3" d="M71.11,77.34a64.6,64.6,0,0,1-3,7.44,14.57,14.57,0,0,0-1.26,2.45c-.46,1.85-.9-.06.25,2-.64-1.15-2.23-.14-1.73,1,1.29,3-2.36,5.26-4.54,5.79-1.25.3-.72,2.23.54,1.93,2.14-.53,3.82-.87,4.82-2.89s1.81-3.75.91-5.84l-1.73,1,.14.25a1,1,0,0,0,.86.5l.34,0a1,1,0,0,0,.86-.5A134.24,134.24,0,0,0,73,77.87c.41-1.22-1.52-1.75-1.93-.53Z"/><path class="cls-3" d="M52.07,91.59c.91-.34,1.84-.65,2.73-1a14.11,14.11,0,0,1,2.8-1.19c1.25-.28.72-2.2-.53-1.93a10.67,10.67,0,0,0-2.62,1.06,23.63,23.63,0,0,1-2.91,1.18c-1.2.45-.68,2.38.53,1.93Z"/><path class="cls-3" d="M67.07,89.68a1,1,0,0,0,0-2,1,1,0,0,0,0,2Z"/><path class="cls-3" d="M79.78,67.72a7,7,0,0,1,0,1.37,1.51,1.51,0,0,0,1.5,1.5,1.54,1.54,0,0,0,1.5-1.5,7,7,0,0,0,0-1.37,1.53,1.53,0,0,0-1.5-1.5,1.51,1.51,0,0,0-1.5,1.5Z"/><path class="cls-3" d="M80.06,74.83c.17,1.4-.76,2.83-1.32,4.07-.17.37.11.88.56.74a.87.87,0,0,0,.62-.54c.11-.32-.18-.86,0-1.08.36-.54-.51-1-.86-.5-.09.12-.34,1.27,0,1.15l.56.74c.63-1.4,1.66-3,1.46-4.58-.08-.63-1.08-.64-1,0Z"/><path class="cls-3" d="M79.59,79a.5.5,0,0,0,0-1,.5.5,0,0,0,0,1Z"/><path class="cls-3" d="M77.41,81.66c-.32,1.4-1.1,2.65-1.34,4.07-.11.63.85.9,1,.27.25-1.43,1-2.67,1.34-4.08.14-.62-.82-.89-1-.26Z"/><path class="cls-3" d="M77.74,81.9l-1.08,3.18c-.21.61.76.87,1,.27l1.08-3.18c.21-.61-.75-.88-1-.27Z"/><path class="cls-3" d="M76.54,83.27a9.71,9.71,0,0,0-.34,1c-.09.34-.3.61-.37,1-.11.63.85.9,1,.26a6.25,6.25,0,0,1,.33-.81,8.57,8.57,0,0,1,.27-.86c.26-.58-.61-1.09-.86-.5Z"/><path class="cls-3" d="M77.48,84.93a.5.5,0,0,0,0-1,.5.5,0,0,0,0,1Z"/><path class="cls-3" d="M77.35,85.21a.5.5,0,0,0,0-1,.5.5,0,0,0,0,1Z"/><path class="cls-3" d="M77.26,85.43a.5.5,0,0,0,0-1,.5.5,0,0,0,0,1Z"/><path class="cls-3" d="M77.27,85.53a.5.5,0,0,0,0-1,.5.5,0,0,0,0,1Z"/><path class="cls-3" d="M75.1,88.75c-.36,1.15-.78,2.27-1.24,3.38-.25.6.72.85,1,.27.46-1.11.88-2.24,1.25-3.38.2-.62-.77-.88-1-.27Z"/><path class="cls-3" d="M74.51,89a32.67,32.67,0,0,0-1.31,3.71.5.5,0,0,0,1,.27,32.1,32.1,0,0,1,1.3-3.72c.25-.59-.72-.85-1-.26Z"/><path class="cls-3" d="M74,91.75a9.73,9.73,0,0,1-.42,1.18c-.29.58.58,1.08.86.51A12.76,12.76,0,0,0,74.91,92c.21-.62-.76-.88-1-.27Z"/><path class="cls-3" d="M73.3,93.23c-.48,1.61-1.48,3-1.9,4.63-.23.86-.33,3-1.37,3.56l.68.69.27-.6c.27-.58-.59-1.09-.86-.5l-.27.59a.5.5,0,0,0,.68.69,4.58,4.58,0,0,0,1.69-2.64,20.79,20.79,0,0,1,1-3.36,19.91,19.91,0,0,0,1-2.79.5.5,0,0,0-1-.27Z"/><path class="cls-3" d="M72.94,92.87a49.47,49.47,0,0,0-2,6c-.09.4.36.82.74.57a.85.85,0,0,0,.49-.72c.09-.63-.87-.9-1-.26l0,.11.74.57a47.25,47.25,0,0,1,2-6c.22-.6-.74-.86-1-.27Z"/><path class="cls-3" d="M71.15,97.78a1.38,1.38,0,0,0-.19.56,4.27,4.27,0,0,1-.27.67,4.73,4.73,0,0,0-.25.62c-.06.26,0,.52-.12.78a.5.5,0,0,0,1,.26,8.58,8.58,0,0,1,.34-1.3c.07-.17.16-.35.22-.52s.07-.43.18-.57c.38-.52-.49-1-.87-.5Z"/><path class="cls-3" d="M70.58,99.34a1,1,0,0,0-.37.77c0,.65,1,.64,1,0,0,.06,0,0,.07-.07.41-.49-.29-1.2-.7-.7Z"/><path class="cls-3" d="M56.64,101.17a2.36,2.36,0,0,0,.38.76.75.75,0,0,0,.24.15c-.18-.11-.22-.12-.06,0,.44.47,1.15-.24.71-.71a2.66,2.66,0,0,1-.23-.24c-.17-.07-.15-.07,0,0l-.13-.28c-.24-.59-1.21-.33-1,.26Z"/><path class="cls-3" d="M57.75,102.43a.5.5,0,0,0,0-1,.5.5,0,0,0,0,1Z"/><path class="cls-3" d="M57.85,102.45a.5.5,0,0,0,0-1,.5.5,0,0,0,0,1Z"/><path class="cls-3" d="M57.94,102.46a.5.5,0,0,0,0-1,.5.5,0,0,0,0,1Z"/><path class="cls-3" d="M57.28,99.52a1.93,1.93,0,0,0-.06,2.57c.49.41,1.2-.3.71-.71-.14-.12-.17-.3-.3-.42l.15.35a1.46,1.46,0,0,1,.21-1.08c.46-.45-.25-1.16-.71-.71Z"/><path class="cls-3" d="M57.46,101.87a.5.5,0,0,0,0-1,.5.5,0,0,0,0,1Z"/><path class="cls-3" d="M57.4,101.33a.5.5,0,0,0,0-1,.5.5,0,0,0,0,1Z"/><path class="cls-3" d="M57.44,100.9a.5.5,0,0,0,0-1,.5.5,0,0,0,0,1Z"/><path class="cls-3" d="M57.51,100.66a.5.5,0,0,0,0-1,.5.5,0,0,0,0,1Z"/><path class="cls-3" d="M57.55,100.57a.5.5,0,0,0,0-1,.5.5,0,0,0,0,1Z"/><path class="cls-3" d="M57.48,100.74a.5.5,0,0,0,0-1,.5.5,0,0,0,0,1Z"/><path class="cls-3" d="M57.43,101.08a.5.5,0,0,0,0-1,.5.5,0,0,0,0,1Z"/><path class="cls-3" d="M57.41,101.33a.5.5,0,0,0,0-1,.5.5,0,0,0,0,1Z"/><path class="cls-3" d="M57.4,101.54a.5.5,0,0,0,0-1,.5.5,0,0,0,0,1Z"/><path class="cls-3" d="M57.43,101.7a.5.5,0,0,0,0-1,.5.5,0,0,0,0,1Z"/><path class="cls-3" d="M57.5,101.92a.5.5,0,0,0,0-1,.5.5,0,0,0,0,1Z"/><path class="cls-3" d="M57.53,102.06a.5.5,0,0,0,0-1,.5.5,0,0,0,0,1Z"/><path class="cls-3" d="M57.54,100.65a.5.5,0,0,0,0-1,.5.5,0,0,0,0,1Z"/><path class="cls-3" d="M57.59,100.56a.5.5,0,0,0,0-1,.5.5,0,0,0,0,1Z"/><path class="cls-3" d="M57.48,100.85a.5.5,0,0,0,0-1,.5.5,0,0,0,0,1Z"/><path class="cls-3" d="M57.5,100.79a.5.5,0,0,0,0-1,.5.5,0,0,0,0,1Z"/><path class="cls-3" d="M57.43,101.09a.5.5,0,0,0,0-1,.5.5,0,0,0,0,1Z"/><path class="cls-3" d="M57.41,101.29a.5.5,0,0,0,0-1,.5.5,0,0,0,0,1Z"/><path class="cls-3" d="M57.41,101.48a.5.5,0,0,0,0-1,.5.5,0,0,0,0,1Z"/><path class="cls-3" d="M57.45,101.68a.5.5,0,0,0,0-1,.5.5,0,0,0,0,1Z"/><path class="cls-3" d="M57.48,101.9a.5.5,0,0,0,0-1,.5.5,0,0,0,0,1Z"/><path class="cls-3" d="M57.53,102a.5.5,0,0,0,0-1,.5.5,0,0,0,0,1Z"/><path class="cls-3" d="M57.56,102.1a.5.5,0,0,0,0-1,.5.5,0,0,0,0,1Z"/><path class="cls-3" d="M57.81,102.4a.5.5,0,0,0,0-1,.5.5,0,0,0,0,1Z"/><path class="cls-3" d="M57.43,101.15a.5.5,0,0,0,0-1,.5.5,0,0,0,0,1Z"/><path class="cls-3" d="M57.44,101.08a.5.5,0,0,0,0-1,.5.5,0,0,0,0,1Z"/><path class="cls-3" d="M57.45,101a.5.5,0,0,0,0-1,.5.5,0,0,0,0,1Z"/><path class="cls-3" d="M57.52,100.74a.5.5,0,0,0,0-1,.5.5,0,0,0,0,1Z"/><path class="cls-3" d="M57.53,100.7a.5.5,0,0,0,0-1,.5.5,0,0,0,0,1Z"/><path class="cls-3" d="M57.46,100.94a.5.5,0,0,0,0-1,.5.5,0,0,0,0,1Z"/><path class="cls-3" d="M57.88,100.69h0a.5.5,0,0,0-.86-.51h0a.5.5,0,0,0,.86.51Z"/><path class="cls-3" d="M57.43,101.07a.5.5,0,0,0,0-1,.5.5,0,0,0,0,1Z"/><path class="cls-3" d="M57.41,101.27a.5.5,0,0,0,0-1,.5.5,0,0,0,0,1Z"/><path class="cls-3" d="M57.44,101.2a.5.5,0,0,0,0-1,.5.5,0,0,0,0,1Z"/><path class="cls-3" d="M57.44,101.15a.5.5,0,0,0,0-1,.5.5,0,0,0,0,1Z"/><path class="cls-3" d="M57.45,101.1a.5.5,0,0,0,0-1,.5.5,0,0,0,0,1Z"/><path class="cls-3" d="M57.42,101.36a.5.5,0,0,0,0-1,.5.5,0,0,0,0,1Z"/><path class="cls-3" d="M57.43,101.36a.5.5,0,0,0,0-1,.5.5,0,0,0,0,1Z"/><path class="cls-3" d="M57.44,101.52a.5.5,0,0,0,0-1,.5.5,0,0,0,0,1Z"/><path class="cls-3" d="M57.46,101.73a.5.5,0,0,0,0-1,.5.5,0,0,0,0,1Z"/><path class="cls-3" d="M57.49,101.9a.5.5,0,0,0,0-1,.5.5,0,0,0,0,1Z"/><path class="cls-3" d="M57.46,101.77a.5.5,0,0,0,0-1,.5.5,0,0,0,0,1Z"/><path class="cls-3" d="M57.53,100.72a.5.5,0,0,0,0-1,.5.5,0,0,0,0,1Z"/><path class="cls-3" d="M57.54,100.69a.5.5,0,0,0,0-1,.5.5,0,0,0,0,1Z"/><path class="cls-3" d="M57.55,100.68a.5.5,0,0,0,0-1,.5.5,0,0,0,0,1Z"/><path class="cls-3" d="M57.55,100.65a.5.5,0,0,0,0-1,.5.5,0,0,0,0,1Z"/><path class="cls-3" d="M57.51,100.78a.5.5,0,0,0,0-1,.5.5,0,0,0,0,1Z"/><path class="cls-3" d="M57.51,100.8a.5.5,0,0,0,0-1,.5.5,0,0,0,0,1Z"/><path class="cls-3" d="M57.45,101a.5.5,0,0,0,0-1,.5.5,0,0,0,0,1Z"/><path class="cls-3" d="M57.44,101.68a.5.5,0,0,0,0-1,.5.5,0,0,0,0,1Z"/><path class="cls-3" d="M57.44,101.67a.5.5,0,0,0,0-1,.5.5,0,0,0,0,1Z"/><path class="cls-3" d="M57.44,101.65a.5.5,0,0,0,0-1,.5.5,0,0,0,0,1Z"/><path class="cls-3" d="M57.44,101.65a.5.5,0,0,0,0-1,.5.5,0,0,0,0,1Z"/><line class="cls-11" x1="154.76" y1="104.41" x2="154.76" y2="104.61"/><path class="cls-3" d="M154.45,113.32l-1.9,1.14-.05,0a.21.21,0,0,0-.07.29.18.18,0,0,0,.18.1h7.92a.18.18,0,0,0,.18-.1.21.21,0,0,0-.07-.29l0,0-1.89-1.14Z"/><line class="cls-11" x1="158.53" y1="104.41" x2="158.53" y2="104.61"/><polygon class="cls-3" points="154.09 112.9 159.19 112.9 159.19 112.9 159.19 109.5 154.09 109.5 154.09 112.9"/><polyline class="cls-3" points="160.04 102.71 160.04 104.42 153.24 104.42 153.24 102.71"/><polygon class="cls-3" points="144.64 102.71 144.64 86.77 145.49 86.77 161.65 86.77 162.5 86.77 162.5 102.71 161.65 102.71 145.49 102.71 144.64 102.71"/><path class="cls-12" d="M159.09,105.88a3.28,3.28,0,0,0,.1.7"/><line class="cls-12" x1="159.19" y1="106.58" x2="159.19" y2="109.07"/><line class="cls-12" x1="159.19" y1="109.07" x2="154.09" y2="109.07"/><line class="cls-12" x1="154.09" y1="109.07" x2="154.09" y2="108.86"/><path class="cls-12" d="M154.09,108.86a2.76,2.76,0,0,0,.15-.85"/><path class="cls-12" d="M154.24,108a2.57,2.57,0,0,0-.14-.82"/><line class="cls-12" x1="154.09" y1="107.16" x2="154.09" y2="104.82"/><line class="cls-12" x1="159.19" y1="104.82" x2="159.19" y2="105.18"/><path class="cls-12" d="M159.19,105.18a3.28,3.28,0,0,0-.1.7"/><line class="cls-11" x1="151.11" y1="108.65" x2="151.11" y2="108.01"/><line class="cls-11" x1="151.11" y1="108.01" x2="151.11" y2="107.37"/><line class="cls-12" x1="159.17" y1="104.8" x2="158.98" y2="104.61"/><line class="cls-12" x1="154.3" y1="104.61" x2="154.11" y2="104.8"/><line class="cls-12" x1="158.98" y1="104.61" x2="154.3" y2="104.61"/><line class="cls-11" x1="158.77" y1="113.32" x2="159.17" y2="112.92"/><line class="cls-11" x1="154.52" y1="113.32" x2="154.11" y2="112.92"/><line class="cls-11" x1="159.17" y1="109.47" x2="158.77" y2="109.07"/><line class="cls-11" x1="154.11" y1="109.47" x2="154.51" y2="109.08"/><line class="cls-11" x1="151.11" y1="108.65" x2="151.54" y2="108.86"/><line class="cls-11" x1="151.11" y1="107.37" x2="151.54" y2="107.16"/><line class="cls-11" x1="151.54" y1="107.16" x2="154.09" y2="107.16"/><line class="cls-11" x1="151.54" y1="108.86" x2="154.09" y2="108.86"/><path class="cls-3" d="M155.62,107.59a10.85,10.85,0,0,0,1.89,0,1.5,1.5,0,0,0,0-3,10.85,10.85,0,0,1-1.89,0,1.5,1.5,0,0,0-1.5,1.5,1.52,1.52,0,0,0,1.5,1.5Z"/><path class="cls-3" d="M155.7,109a14.55,14.55,0,0,1,2,0,1.5,1.5,0,0,0,0-3,14.55,14.55,0,0,0-2,0,1.5,1.5,0,0,0,0,3Z"/><path class="cls-3" d="M151.49,108.16a1.55,1.55,0,0,0,.93,0,.5.5,0,0,0-.14-1H152v1h2.11a.5.5,0,0,0,0-1H152a.5.5,0,0,0,0,1h.28l-.13-1a.43.43,0,0,1-.4,0,.5.5,0,0,0-.26,1Z"/><path class="cls-3" d="M151.64,108.62q1.52,0,3,0c.64,0,.65-1,0-1q-1.51.07-3,0c-.64,0-.64,1,0,1Z"/><path class="cls-3" d="M151.63,108.81q1.92,0,3.84.15c.64,0,.64-1,0-1q-1.92-.1-3.84-.15a.5.5,0,0,0,0,1Z"/><path class="cls-3" d="M151.55,108.81a.5.5,0,0,0,0-1,.5.5,0,0,0,0,1Z"/><path class="cls-3" d="M151.58,108.16a.5.5,0,0,0,0-1,.5.5,0,0,0,0,1Z"/><path class="cls-3" d="M154.57,107.29a.5.5,0,0,0,0-1,.5.5,0,0,0,0,1Z"/><path class="cls-3" d="M154.59,107.57a.5.5,0,0,0,0-1,.5.5,0,0,0,0,1Z"/><path class="cls-3" d="M154.59,106.89a.5.5,0,0,0,0-1,.5.5,0,0,0,0,1Z"/><path class="cls-3" d="M154.54,105.63a.5.5,0,0,0,0-1,.5.5,0,0,0,0,1Z"/><path class="cls-3" d="M154.77,105.59a.5.5,0,0,0,0-1,.5.5,0,0,0,0,1Z"/><path class="cls-3" d="M154.57,106.07a.5.5,0,0,0,0-1,.5.5,0,0,0,0,1Z"/><path class="cls-3" d="M158.27,105.6a.5.5,0,0,0,0-1,.5.5,0,0,0,0,1Z"/><path class="cls-3" d="M158.67,105.6a.5.5,0,0,0,0-1,.5.5,0,0,0,0,1Z"/><path class="cls-3" d="M158.55,106a.5.5,0,0,0,0-1,.5.5,0,0,0,0,1Z"/><path class="cls-3" d="M158.71,105.57a.5.5,0,0,0,0-1,.5.5,0,0,0,0,1Z"/><path class="cls-3" d="M158.59,106a.5.5,0,0,0,0-1,.5.5,0,0,0,0,1Z"/><path class="cls-3" d="M158.61,106.47a.5.5,0,0,0,0-1,.5.5,0,0,0,0,1Z"/><path class="cls-3" d="M158.67,107a.5.5,0,0,0,0-1,.5.5,0,0,0,0,1Z"/><path class="cls-3" d="M158.72,107.34a.5.5,0,0,0,0-1,.5.5,0,0,0,0,1Z"/><path class="cls-3" d="M158.36,107.79c-.24.25-.12.47-.13.76l.24-.43c.09,0-.25,0-.25,0a.5.5,0,0,0,0,1A1.79,1.79,0,0,0,159,109a.5.5,0,0,0,.25-.43c0-.13,0-.25,0-.38l-.15.35,0,0c.46-.45-.25-1.16-.71-.71Z"/><path class="cls-3" d="M158.74,109.15a.5.5,0,0,0,0-1,.5.5,0,0,0,0,1Z"/><path class="cls-3" d="M154.52,109.07a17.91,17.91,0,0,1,2.93,0,.5.5,0,0,0,0-1,18.85,18.85,0,0,0-3.19,0c-.64.11-.37,1.07.26,1Z"/><polygon class="cls-3" points="161.11 114.88 151.93 114.88 147.34 122.95 151.93 130.9 161.11 130.9 165.7 122.95 161.11 114.88"/><polygon class="cls-3" points="139.11 136.88 129.93 136.88 125.34 144.95 129.93 152.9 139.11 152.9 143.7 144.95 139.11 136.88"/><rect class="cls-3" x="170" y="129" width="11" height="24"/><rect class="cls-3" x="149" y="137" width="16" height="16"/></svg>