<svg id="图层_1" data-name="图层 1" xmlns="http://www.w3.org/2000/svg" xmlns:xlink="http://www.w3.org/1999/xlink" viewBox="0 0 200 200"><defs><style>.cls-1{fill:none;}.cls-2{fill:#209bfa;}.cls-3{fill:#fff;}.cls-4{clip-path:url(#clip-path);}</style><clipPath id="clip-path" transform="translate(0 0)"><rect class="cls-1" x="117.82" y="128.56" width="45.55" height="23.89"/></clipPath></defs><title>图片分类</title><rect class="cls-2" width="200" height="200" rx="4"/><rect class="cls-2" x="107.6" y="27.5" width="66" height="66" rx="2"/><path class="cls-3" d="M171.6,29.5v62h-62v-62h62m0-4h-62a4,4,0,0,0-4,4v62a4,4,0,0,0,4,4h62a4,4,0,0,0,4-4v-62a4,4,0,0,0-4-4Z" transform="translate(0 0)"/><path class="cls-3" d="M140.6,44.12a10.21,10.21,0,1,0,10,10.2,10.1,10.1,0,0,0-10-10.2Zm14.91,32.76a16.35,16.35,0,0,0-7.23-12.58,12,12,0,0,1-15.37,0,16.35,16.35,0,0,0-7.22,12.58" transform="translate(0 0)"/><rect class="cls-2" x="27.47" y="27.5" width="66" height="66" rx="2"/><path class="cls-3" d="M91.47,29.5v62h-62v-62h62m0-4h-62a4,4,0,0,0-4,4v62a4,4,0,0,0,4,4h62a4,4,0,0,0,4-4v-62a4,4,0,0,0-4-4Z" transform="translate(0 0)"/><path class="cls-3" d="M67.71,51.83a16.6,16.6,0,0,0-7.24,2.24,16.66,16.66,0,0,0-7.25-2.24c-3.53,0-8.3,3.26-8.3,11.05A15.76,15.76,0,0,0,60.43,78.4h.07A15.76,15.76,0,0,0,76,62.88c0-7.79-4.78-11.05-8.31-11.05ZM52.05,57.58a12.44,12.44,0,0,0-2.19,6.66l-1-.06a13.64,13.64,0,0,1,2.42-7.25,7.61,7.61,0,0,1,2.17-2.07l.24.44.25.44a7,7,0,0,0-1.89,1.84Zm0,0" transform="translate(0 0)"/><path class="cls-3" d="M61.6,52h.12a.72.72,0,0,0,.59-.82s-.56-3.47,1.14-5.55A4.83,4.83,0,0,1,67.2,44a.72.72,0,0,0-.06-1.43,6.19,6.19,0,0,0-4.8,2.15c-2.1,2.58-1.47,6.51-1.44,6.67a.72.72,0,0,0,.7.6Zm0,0" transform="translate(0 0)"/><path class="cls-3" d="M60.1,47.89c-3.84-8-10.35-3.76-10.35-3.76,1.4,5.14,7.41,5.84,10.35,3.76Zm0,0" transform="translate(0 0)"/><rect class="cls-2" x="27.47" y="107.5" width="66" height="66" rx="2"/><path class="cls-3" d="M91.47,109.5v62h-62v-62h62m0-4h-62a4,4,0,0,0-4,4v62a4,4,0,0,0,4,4h62a4,4,0,0,0,4-4v-62a4,4,0,0,0-4-4Z" transform="translate(0 0)"/><path class="cls-3" d="M56.25,130.2c3.64-1,7,3.23,7,3.23l3.06,0S62.31,125,57,125H50c-.48,0-.94.89-1.35.83a6,6,0,0,1-2-.63,5.18,5.18,0,0,0-2.55-.36h-.32c-1.35,0-1.61-.11-1.61,1.45v4.26c0,1.56.26,1.45,1.61,1.45h.32c1,0,2.2.05,2.76-.54a3.55,3.55,0,0,1,2.87-.66,2.79,2.79,0,0,1,1.66,2.56V140a1.81,1.81,0,0,0-1.12,1.61v12.55c0,2.79,6.66,2.79,6.66,0V141.57A1.82,1.82,0,0,0,55.76,140v-8c.08-.84.18-1.65.49-1.73Zm0,0" transform="translate(0 0)"/><path class="cls-3" d="M75.37,134.35a4.21,4.21,0,0,0,1.69-1,6.73,6.73,0,0,0,0-9h-.82c0,3.7.15,3.25-1,4.38-.93.92-3.86.9-4.75,0-1.17-1.16-1-.6-1-4.38H68.7a6.8,6.8,0,0,0,0,9,4.21,4.21,0,0,0,1.66,1v17.39l-.55,3.82.63,1.1h4.83l.65-1.12-.55-3.79ZM73.9,154.77a1.44,1.44,0,1,1,0-2,1.45,1.45,0,0,1,0,2Zm0,0" transform="translate(0 0)"/><rect class="cls-2" x="107.6" y="107.5" width="66" height="66" rx="2"/><path class="cls-3" d="M171.6,109.5v62h-62v-62h62m0-4h-62a4,4,0,0,0-4,4v62a4,4,0,0,0,4,4h62a4,4,0,0,0,4-4v-62a4,4,0,0,0-4-4Z" transform="translate(0 0)"/><g class="cls-4"><path class="cls-3" d="M125.67,148.41a4,4,0,1,0,4-4,4,4,0,0,0-4,4Zm0,0" transform="translate(0 0)"/></g><path class="cls-3" d="M150.53,148.41a4,4,0,1,0,2-3.45,4,4,0,0,0-2,3.45Zm0,0" transform="translate(0 0)"/><path class="cls-3" d="M158.85,135.11l-4.29-.08c-3-4.58-7-6.45-12.32-6.45-6.33,0-11.38,2.27-14.35,5.57l-3.77.8c-3.82.87-6.3,2.8-6.28,5.79l0,2.26c0,2.74,2.12,5,5.65,5.52a6.25,6.25,0,0,1,12.47,0l12.37,0a6.25,6.25,0,0,1,12.46-.24,3.28,3.28,0,0,0,2.58-3.1v-6c0-2.46-1.56-3.81-4.5-4Zm-17.42,1.6-1.15.09c-4.86.37-10.53-1.16-10.46-1.48.35-1.42,5-3.93,10.59-4.28.53,0,1,0,1.5,0Zm1.75-.13.45-5.52c3.75.35,5.8,1.95,6.86,4.75.09.25-3,.46-7.31.77Zm0,0" transform="translate(0 0)"/></svg>