<?xml version="1.0" standalone="no"?><!DOCTYPE svg PUBLIC "-//W3C//DTD SVG 1.1//EN" "http://www.w3.org/Graphics/SVG/1.1/DTD/svg11.dtd"><svg t="1562126347901" class="icon" viewBox="0 0 1024 1024" version="1.1" xmlns="http://www.w3.org/2000/svg" p-id="2980" width="128" height="128" xmlns:xlink="http://www.w3.org/1999/xlink"><defs><style type="text/css"></style></defs><path d="M555.008 17.92C310.272 17.92 110.848 217.344 110.848 462.08c0 1.792 0.256 3.584 0.512 5.376C80.128 499.2 15.104 571.904 15.104 623.104c0 56.576 53.504 78.336 91.648 79.616l43.52 9.728 8.192 213.76c0.256 43.52 36.096 79.104 79.872 79.104h163.072c17.664 0 31.744-14.336 31.744-31.744 0-17.408-14.336-31.744-31.744-31.744H238.336c-8.704 0-16.128-7.168-16.128-16.128l-9.984-264.448-94.464-20.992-3.328-0.768h-3.584c-3.328 0-13.312-1.024-21.76-4.352-10.24-4.096-10.24-7.936-10.24-11.52 0-18.432 40.448-73.984 86.272-119.04 8.704-8.704 11.52-21.248 7.936-32.256 1.024-3.072 1.536-6.4 1.536-9.728 0.256-209.92 170.752-380.672 380.672-380.672 209.664 0 380.416 170.752 380.416 380.416 0 17.664 14.336 31.744 31.744 31.744 17.408 0 31.744-14.08 31.744-31.744C999.168 217.344 800 17.92 555.008 17.92z m0 0" fill="#0a40e7" p-id="2981"></path><path d="M430.592 480.512l-21.76 56.576c-3.072 7.936-7.168 14.336-12.288 18.944-5.376 4.864-13.056 7.168-23.296 7.168s-18.432-2.816-24.32-8.448c-6.144-5.632-6.912-15.104-2.304-28.672l101.632-296.192c1.536-5.376 5.12-9.984 10.496-14.08 5.376-4.096 12.8-6.144 22.016-6.144 9.216 0 16.64 2.048 22.016 6.144 5.376 4.096 8.96 8.704 10.496 14.08L615.936 527.36c3.84 12.544 2.816 21.504-3.328 27.392-6.144 5.632-14.336 8.704-24.32 8.704-10.24 0.256-17.664-1.792-22.784-6.656s-8.704-10.496-11.264-16.896l-23.552-59.136h-100.096z m88.32-55.552l-37.888-122.368L442.88 424.96h76.032zM718.848 531.968c0 10.496-2.56 18.432-7.68 23.552-5.12 5.376-13.312 7.936-24.832 7.936-11.52 0-19.712-2.56-24.32-7.936-4.864-5.376-7.168-13.056-7.168-23.296V241.408c0-20.992 10.496-31.488 31.488-31.488 10.496 0 18.688 2.304 24.064 6.912 5.632 4.608 8.448 12.544 8.448 24.064v291.072z" fill="#0a40e7" p-id="2982"></path></svg>