<?xml version="1.0" standalone="no"?><!DOCTYPE svg PUBLIC "-//W3C//DTD SVG 1.1//EN" "http://www.w3.org/Graphics/SVG/1.1/DTD/svg11.dtd"><svg t="1575023563546" class="icon" viewBox="0 0 1024 1024" version="1.1" xmlns="http://www.w3.org/2000/svg" p-id="5798" xmlns:xlink="http://www.w3.org/1999/xlink" width="200" height="200"><defs><style type="text/css"></style></defs><path d="M918.094972 40.61093 105.895819 40.61093c-56.05569 0-101.523231 46.410006-101.523231 103.555517l0 518.068206c0 57.141418 45.468564 103.552447 101.523231 103.552447l812.199153 0c56.05262 0 101.525278-46.411029 101.525278-103.626125L1019.620249 144.166447C1019.619226 87.020936 974.148615 40.61093 918.094972 40.61093L918.094972 40.61093zM595.680864 838.304717 428.382581 838.304717c0 0-33.577746 96.664573-133.941572 96.664573l0 48.370661 435.106726 0 0-48.370661C629.111255 934.969291 595.680864 838.304717 595.680864 838.304717L595.680864 838.304717zM476.490252 587.604932l-72.967872 72.935126-73.004711-72.935126L184.544063 441.621093l72.967872-72.963779 145.984862 145.92858 362.956476-362.927823 72.993454 72.965825L476.490252 587.604932 476.490252 587.604932z" p-id="5799" fill="#ffffff"></path></svg>