<?xml version="1.0" standalone="no"?><!DOCTYPE svg PUBLIC "-//W3C//DTD SVG 1.1//EN" "http://www.w3.org/Graphics/SVG/1.1/DTD/svg11.dtd"><svg t="1575023341793" class="icon" viewBox="0 0 1144 1024" version="1.1" xmlns="http://www.w3.org/2000/svg" p-id="1229" xmlns:xlink="http://www.w3.org/1999/xlink" width="223.4375" height="200"><defs><style type="text/css"></style></defs><path d="M661.232941 993.882353V791.597176h81.980235c22.046118 0 33.069176-26.563765 17.498353-42.014117l-170.977882-170.164706a24.892235 24.892235 0 0 0-34.996706 0l-170.977882 170.164706c-15.570824 15.450353-4.547765 42.014118 17.468235 42.014117h82.010353V993.882353a30.117647 30.117647 0 0 1-30.117647 30.117647H208.082824c-57.449412 0-104.041412-45.839059-104.041412-102.4v-51.2H52.028235C23.296 870.4 0 847.480471 0 819.2V665.6c0-28.280471 23.296-51.2 52.028235-51.2h52.013177C104.056471 416.451765 267.083294 256 468.193882 256h52.028236v-65.024A101.315765 101.315765 0 0 1 468.178824 102.4C468.178824 45.839059 514.770824 0 572.235294 0s104.056471 45.839059 104.056471 102.4a101.300706 101.300706 0 0 1-52.028236 88.576V256h52.013177c201.125647 0 364.152471 160.451765 364.15247 358.4h52.028236c28.717176 0 52.013176 22.919529 52.013176 51.2v153.6c0 28.280471-23.280941 51.2-52.013176 51.2H1040.414118v51.2c0 56.560941-46.592 102.4-104.041412 102.4H691.350588a30.117647 30.117647 0 0 1-30.117647-30.117647z" p-id="1230" fill="#ffffff"></path></svg>