<svg id="图层_1" data-name="图层 1" xmlns="http://www.w3.org/2000/svg" viewBox="0 0 40 40"><defs><style>.cls-1{fill:#fff;}.cls-2{fill:#ff9739;}.cls-3{fill:none;stroke:#f26716;stroke-linecap:round;stroke-linejoin:round;stroke-width:0.2px;}.cls-4{fill:#f26716;}</style></defs><title>面性图标4</title><path class="cls-1" d="M4,39.5A3.5,3.5,0,0,1,.5,36V4A3.5,3.5,0,0,1,4,.5H36A3.5,3.5,0,0,1,39.5,4V36A3.5,3.5,0,0,1,36,39.5Z"/><path class="cls-2" d="M36,1a3,3,0,0,1,3,3V36a3,3,0,0,1-3,3H4a3,3,0,0,1-3-3V4A3,3,0,0,1,4,1H36m0-1H4A4,4,0,0,0,0,4V36a4,4,0,0,0,4,4H36a4,4,0,0,0,4-4V4a4,4,0,0,0-4-4Z"/><rect class="cls-3" x="12.8" y="12.8" width="14.4" height="14.4"/><rect class="cls-4" x="12.8" y="12.8" width="3.6" height="3.6"/><rect class="cls-4" x="23.6" y="12.8" width="3.6" height="3.6"/><rect class="cls-4" x="23.6" y="23.6" width="3.6" height="3.6"/><rect class="cls-4" x="12.8" y="23.6" width="3.6" height="3.6"/><rect class="cls-4" x="14" y="18.2" width="2.4" height="1.2"/><rect class="cls-4" x="14" y="20.6" width="2.4" height="1.2"/><rect class="cls-4" x="18.2" y="18.2" width="3.6" height="1.2"/><rect class="cls-4" x="18.2" y="20.6" width="3.6" height="1.2"/><rect class="cls-4" x="23.6" y="18.2" width="2.4" height="1.2"/><rect class="cls-4" x="23.6" y="20.6" width="2.4" height="1.2"/><rect class="cls-1" x="26.81" y="11.96" width="2.4" height="0.24" transform="translate(-0.34 23.35) rotate(-45)"/><polygon class="cls-4" points="28.78 11.15 27.08 12.84 27.25 13.01 28.95 11.32 28.78 11.15"/><rect class="cls-1" x="27.89" y="26.84" width="0.24" height="2.4" transform="translate(-11.62 28.02) rotate(-45)"/><polygon class="cls-4" points="27.25 27.11 27.08 27.28 28.78 28.97 28.95 28.8 27.25 27.11"/><rect class="cls-1" x="11.81" y="10.88" width="0.24" height="2.4" transform="translate(-5.05 11.98) rotate(-45)"/><polygon class="cls-4" points="11.17 11.15 11 11.32 12.7 13.01 12.87 12.84 11.17 11.15"/><rect class="cls-1" x="10.73" y="27.92" width="2.4" height="0.24" transform="translate(-16.33 16.65) rotate(-45)"/><polygon class="cls-4" points="12.7 27.11 11 28.8 11.17 28.97 12.87 27.28 12.7 27.11"/><circle class="cls-4" cx="30.2" cy="9.8" r="1.8"/><circle class="cls-4" cx="30.2" cy="30.2" r="1.8"/><circle class="cls-4" cx="9.8" cy="9.8" r="1.8"/><circle class="cls-4" cx="9.8" cy="30.2" r="1.8"/><path class="cls-3" d="M16.88,9.8a3.6,3.6,0,0,1,6.24,0"/><path class="cls-3" d="M17.92,10.4l.08-.13a2.4,2.4,0,0,1,4.08.13"/><path class="cls-3" d="M16.88,30.2a3.6,3.6,0,0,0,6.24,0"/><path class="cls-3" d="M17.92,29.6l.08.13a2.4,2.4,0,0,0,4.08-.13"/><path class="cls-3" d="M30.2,23.12a3.6,3.6,0,0,0,0-6.24"/><path class="cls-3" d="M29.6,22.08l.13-.08a2.4,2.4,0,0,0-.13-4.08"/><path class="cls-3" d="M9.8,16.88a3.6,3.6,0,0,0,0,6.24"/><path class="cls-3" d="M10.4,17.92l-.13.08a2.4,2.4,0,0,0,.13,4.08"/></svg>