<svg id="图层_1" data-name="图层 1" xmlns="http://www.w3.org/2000/svg" viewBox="0 0 40 40"><defs><style>.cls-1{fill:#fff;}.cls-2{fill:#ff9739;}.cls-3{fill:none;stroke:#f26716;stroke-miterlimit:10;stroke-width:0.2px;}.cls-4{fill:#f26716;}</style></defs><title>面性图标2</title><path class="cls-1" d="M4,39.51A3.5,3.5,0,0,1,.5,36V4A3.5,3.5,0,0,1,4,.51H36A3.5,3.5,0,0,1,39.5,4V36a3.5,3.5,0,0,1-3.5,3.5Z" transform="translate(0 0)"/><path class="cls-2" d="M36,1a3,3,0,0,1,3,3V36a3,3,0,0,1-3,3H4a3,3,0,0,1-3-3V4A3,3,0,0,1,4,1H36m0-1H4A4,4,0,0,0,0,4V36a4,4,0,0,0,4,4H36a4,4,0,0,0,4-4V4a4,4,0,0,0-4-4Z" transform="translate(0 0)"/><rect class="cls-3" x="3.61" y="14.83" width="0.48" height="4.77"/><polygon class="cls-3" points="3.85 20.08 3.62 19.57 4.07 19.57 3.85 20.08"/><rect class="cls-4" x="3.13" y="16.25" width="1.43" height="0.3"/><rect class="cls-4" x="3.25" y="16.55" width="1.19" height="0.72"/><rect class="cls-4" x="3.37" y="17.26" width="0.95" height="0.48"/><rect class="cls-4" x="3.43" y="17.73" width="0.83" height="0.48"/><rect class="cls-4" x="4.53" y="16.08" width="0.24" height="0.48"/><path class="cls-4" d="M5,17.5v-.11a.09.09,0,0,1,.09-.09h0a.09.09,0,0,1,.08.09v.11a.09.09,0,0,1-.08.09h0A.09.09,0,0,1,5,17.5Z" transform="translate(0 0)"/><rect class="cls-4" x="4.94" y="16.95" width="0.24" height="0.24"/><rect class="cls-4" x="4.82" y="17.16" width="0.48" height="0.18"/><path class="cls-4" d="M5.27,14.66a.25.25,0,1,0,0,.5.25.25,0,0,0,0-.5Z" transform="translate(0 0)"/><path class="cls-4" d="M8.86,12.65a.32.32,0,0,0-.16,0c-.18.05-.7.19-.86.21h0l0,0L8,12.47l.25-.57,0-.06h0l4.95-2.17.35.32.24.22-.91.51-.67.37c-.13.07-.13.14-.13.28s0,.08,0,.08l-2.95,1.3H9.09l0,0A.24.24,0,0,0,8.86,12.65Z" transform="translate(0 0)"/><path class="cls-4" d="M21.28,16.37a.8.8,0,0,0,.13-.13l.07-.14.17-.35L17.46,11a.23.23,0,0,0-.13,0,2.49,2.49,0,0,0-.32.08l-.29.1,0,0c.08.16.79,1.14,1.06,1.51a.36.36,0,0,1,.05.25.15.15,0,0,1,0,.07h0l0,.05c.06.08,1.05,1.2,1.7,1.93a.41.41,0,0,0,.14.12.27.27,0,0,1,.13,0,.16.16,0,0,1,.11,0Z" transform="translate(0 0)"/><rect class="cls-4" x="14.97" y="22.57" width="8.39" height="2.81"/><path class="cls-4" d="M22.36,20.07,22,20c-.39-.1-.38-.64-.38-.64s0-1.13-.1-1.5-.26-.47-.41-.5l-3.38-.59c-.16,0-.19.09-.19.09s-.68,2.74-.78,2.92-.18.16-.18.16l-.66,2.3,6.8,0Zm-2.18-.26a.07.07,0,0,1-.09.07l-.53-.08a.08.08,0,0,0-.1.07l0,.18a.07.07,0,0,1-.09.07l-.47-.07a.08.08,0,0,1-.07-.1l0-.18a.08.08,0,0,0-.07-.1l-.53-.08a.1.1,0,0,1-.08-.1l.3-1.86a.08.08,0,0,1,.1-.07l1.86.29a.09.09,0,0,1,.07.1Z" transform="translate(0 0)"/><path class="cls-4" d="M20,19.75l-1.64-.26,0,0a.06.06,0,0,1,0,0l.27-1.7a.07.07,0,0,1,.05,0l1.64.26s0,0,0,0,0,0,0,0L20,19.71s0,0-.05,0Z" transform="translate(0 0)"/><path class="cls-4" d="M6.42,16.66a1.1,1.1,0,0,1-.27-.79c0-.22,0-.49.07-.75l-.57-.58a.53.53,0,0,0-.38-.16.54.54,0,0,0-.54.54V17H7.08a.24.24,0,0,1,0-.08A1.11,1.11,0,0,1,6.42,16.66ZM5.27,15.34a.43.43,0,1,1,.43-.43A.43.43,0,0,1,5.27,15.34Z" transform="translate(0 0)"/><path class="cls-4" d="M6.33,13.88l-.64.42a.35.35,0,0,1-.3,0H5.27a.58.58,0,0,0-.59.59.64.64,0,0,0,0,.2v-.2a.56.56,0,0,1,1-.39l.28.28,0,0,.26-.18C6.29,14.31,6.31,14.05,6.33,13.88Z" transform="translate(0 0)"/><path class="cls-4" d="M21.33,16.81h0l-.12-.27a.28.28,0,0,1-.1-.06l-1.36-1.21H19.7l-.07,0a.45.45,0,0,1-.28-.18c-.06-.07-1.62-1.83-1.71-1.95s-.08-.11-.06-.18a.43.43,0,0,0,0-.05.34.34,0,0,0,0-.14c0-.05-.9-1.39-1-1.54a4.5,4.5,0,0,0-.33-.39,1.9,1.9,0,1,0-1.27,3.32h.21a.67.67,0,0,1,.51.23c.52.54,1.66,1.87,1.88,2.13a.17.17,0,0,1,.13-.05h0l3.38.59h.06a.68.68,0,0,1,.49.51s0,.09,0,.14A1,1,0,0,0,21.33,16.81ZM14.94,14a1.75,1.75,0,1,1,1.75-1.75A1.75,1.75,0,0,1,14.94,14Zm4,2.4a.4.4,0,0,1-.57,0l-1.8-2a.4.4,0,0,1,.6-.54l1.8,2A.4.4,0,0,1,19,16.44Z" transform="translate(0 0)"/><path class="cls-4" d="M14.22,10.48l-.11-.05L14,10.3a.07.07,0,0,1,0,.06l-.9.51-.17.09-.5.29h0s0,.05,0,.1a.23.23,0,0,1-.17.25s-2.8,1.25-2.92,1.29l-.12,0a.21.21,0,0,1-.18-.11H8.76s-.69.2-.89.23h0c-.09,0-.13,0-.14-.07a.16.16,0,0,1,0-.16l-.86.55-.26.16s-.11,1.35-.2,2.19a.93.93,0,0,0,1.09,1,1,1,0,0,0,.7-.81c0-.2.28-.29.28-.29l4.94-2.17a1.94,1.94,0,0,1,.85-3Zm-7,6a.17.17,0,0,1,0-.34.17.17,0,0,1,0,.34Zm5.32-3.52L8.93,14.54a.42.42,0,0,1-.54-.2.42.42,0,0,1,.21-.54l3.62-1.6a.4.4,0,0,1,.33.73Z" transform="translate(0 0)"/><path class="cls-4" d="M14.94,10.83a1.46,1.46,0,1,0,1.46,1.46A1.46,1.46,0,0,0,14.94,10.83Zm-.47,2.38a.21.21,0,1,1,0-.42.21.21,0,0,1,0,.42Zm.11-1.59a.21.21,0,0,1-.21-.21.21.21,0,1,1,.42,0A.21.21,0,0,1,14.58,11.62Zm1.38.94a.22.22,0,1,1,0-.43.21.21,0,0,1,.21.22A.21.21,0,0,1,16,12.56Z" transform="translate(0 0)"/><path class="cls-4" d="M36.87,23.66h-.66v6h.66a.49.49,0,0,0,.5-.49v-5A.49.49,0,0,0,36.87,23.66Z" transform="translate(0 0)"/><path class="cls-4" d="M6.89,23.33H3.25a.62.62,0,0,0-.62.61v1.84H4.77V26H2.63v.31H4.77v.2H2.63v.31H4.77V27H2.63v.31H4.77v.2H2.63v1.84a.61.61,0,0,0,.62.61H6.89a.61.61,0,0,0,.62-.61V23.94A.62.62,0,0,0,6.89,23.33Z" transform="translate(0 0)"/><path class="cls-4" d="M7.51,27.56v.62H25.83a3.12,3.12,0,0,1-.26-.62Z" transform="translate(0 0)"/><path class="cls-4" d="M7.51,25.11v.66H25.57a3.19,3.19,0,0,1,.28-.66Z" transform="translate(0 0)"/><path class="cls-4" d="M25.5,26h-18v1.36h18a3.72,3.72,0,0,1-.08-.67A3.83,3.83,0,0,1,25.5,26Z" transform="translate(0 0)"/><path class="cls-4" d="M35.57,23H29a.38.38,0,0,0-.39.38h0a3.31,3.31,0,0,1,2,.65l.47.27,3.24,1.88a.57.57,0,0,1,0,1L31,29.05l-.42.24a3.28,3.28,0,0,1-2,.69.4.4,0,0,0,.39.36h6.62A.39.39,0,0,0,36,30v-6.6A.39.39,0,0,0,35.57,23Z" transform="translate(0 0)"/><path class="cls-4" d="M34.37,26.65a.43.43,0,0,0-.25-.34l-3.73-2.17a3.57,3.57,0,0,0-1.83-.61,3.13,3.13,0,0,0-2.71,1.58,3.85,3.85,0,0,0-.28.66c0,.07-.05.14-.07.21a3.84,3.84,0,0,0-.07.69,3.71,3.71,0,0,0,.07.67l.07.22a3.44,3.44,0,0,0,.28.65,3.13,3.13,0,0,0,2.71,1.58,3.57,3.57,0,0,0,1.83-.61L34.12,27a.48.48,0,0,0,.25-.35h0v0ZM29.9,25.33l.53-.38a.22.22,0,0,1,.28,0,3.15,3.15,0,0,1,.21.31,2.94,2.94,0,0,1,.15.31.21.21,0,0,1-.1.27l-.58.27a.16.16,0,0,1-.24-.11,2.08,2.08,0,0,0-.12-.22,1.35,1.35,0,0,0-.16-.24A.16.16,0,0,1,29.9,25.33ZM28.18,24l.31,0h.1a2.45,2.45,0,0,1,.31,0,.22.22,0,0,1,.18.23l-.06.64a.17.17,0,0,1-.21.15,1.41,1.41,0,0,0-.25,0h-.12l-.17,0a.16.16,0,0,1-.21-.15L28,24.2A.23.23,0,0,1,28.18,24Zm-2,1.34c.05-.08.1-.15.13-.21L26.4,25a.21.21,0,0,1,.28,0l.17.12.36.25a.18.18,0,0,1,0,.26,1.07,1.07,0,0,0-.1.15l0,.06A1.15,1.15,0,0,0,27,26a.7.7,0,0,1,0,.11.17.17,0,0,1-.24.11L26.27,26l-.13-.06a.18.18,0,0,1-.1-.15.4.4,0,0,1,0-.11A2.21,2.21,0,0,1,26.2,25.32Zm1,2.64-.36.25-.17.12a.2.2,0,0,1-.28,0l-.07-.08L26.2,28a2.83,2.83,0,0,1-.16-.34.17.17,0,0,1,0-.12.2.2,0,0,1,.1-.15l.13-.06.46-.21a.17.17,0,0,1,.24.1.49.49,0,0,0,0,.11,1.15,1.15,0,0,0,.08.15.13.13,0,0,0,0,.06,1.07,1.07,0,0,0,.1.15A.18.18,0,0,1,27.21,28Zm1.69,1.39a2.45,2.45,0,0,1-.31,0h-.1a1.65,1.65,0,0,1-.31,0,.2.2,0,0,1-.17-.22l0-.64a.19.19,0,0,1,.22-.16.55.55,0,0,0,.16,0l.12,0h0a1,1,0,0,0,.25,0,.17.17,0,0,1,.21.15l.06.64A.21.21,0,0,1,28.9,29.35Zm2-1.33a3.15,3.15,0,0,1-.21.31.22.22,0,0,1-.28,0L29.9,28a.17.17,0,0,1,0-.26,2,2,0,0,0,.17-.23l.11-.23a.17.17,0,0,1,.24-.11l.58.27a.21.21,0,0,1,.1.27A2.94,2.94,0,0,1,30.92,28Zm-1.38-1.34a1,1,0,0,1-1,1h-.12a1.2,1.2,0,0,1-.27-.08,1,1,0,0,1-.32-.22,1,1,0,0,1-.28-.67,1,1,0,0,1,.28-.69,1,1,0,0,1,.32-.21,1.2,1.2,0,0,1,.27-.08l.12,0h0a1,1,0,0,1,1,1h0v0Z" transform="translate(0 0)"/></svg>