<?xml version="1.0" standalone="no"?><!DOCTYPE svg PUBLIC "-//W3C//DTD SVG 1.1//EN" "http://www.w3.org/Graphics/SVG/1.1/DTD/svg11.dtd"><svg t="1544668357854" class="icon" style="" viewBox="0 0 1024 1024" version="1.1" xmlns="http://www.w3.org/2000/svg" p-id="2100" data-darkreader-inline-fill="" xmlns:xlink="http://www.w3.org/1999/xlink" width="48" height="48"><defs><style type="text/css">[data-darkreader-inline-fill] { fill: var(--darkreader-inline-fill)  !important; }
</style></defs><path d="M767.717751 256.282249c-2.257993-0.564498-4.515987-1.693495-5.644983-3.951488-45.159868-117.980154-140.560088-193.058434-284.507166-193.058434-182.897464 0-311.603087 137.173098-324.586549 316.119074 0 2.822492-1.693495 5.080485-4.515987 5.644983C62.094818 411.519294 0 502.968026 0 605.706725 0 733.283352 98.787211 841.102536 216.202867 841.102536l92.577729 0c17.499449 0 32.176406-14.676957 32.176406-32.740904 0-18.063947-14.112459-32.740904-32.176406-32.740904L216.202867 775.620728c-82.416759 0-152.979052-77.900772-152.979052-170.478501 0-81.85226 56.449835-155.801544 127.012128-168.220507l23.144432-3.951488c3.38699-0.564498 5.644983-3.951488 5.644983-7.338479l-2.257993-23.708931 0-0.564498C216.767365 243.863286 318.941566 124.189636 477.565601 124.189636c127.012128 0 198.703418 63.788313 231.444322 172.171996l5.644983 17.499449c1.128997 2.822492 3.38699 4.515987 6.209482 4.515987l18.063947 0.564498c119.109151 2.257993 222.976847 100.480706 222.976847 222.412348 0 110.641676-72.255788 234.266814-181.768467 234.266814l-73.384785 0c-17.499449 0-32.176406 14.676957-32.176406 32.740904 0 18.063947 14.112459 32.740904 32.176406 32.740904l72.820287 0c160.31753-4.515987 243.298787-159.753032 243.298787-299.184123C1024 392.890849 910.535832 273.781698 767.717751 256.282249z" p-id="2101" fill="#1f52d9" data-darkreader-inline-fill="" style="--darkreader-inline-fill:#3151a7;"></path><path d="M536.273429 514.822492C536.273429 514.822492 536.273429 514.822492 536.273429 514.822492l-8.467475-9.031974c-4.515987-4.515987-10.16097-7.338479-16.370452-7.338479-5.644983 0-11.854465 2.257993-16.370452 7.338479l-7.902977 8.467475c0 0 0 0.564498-0.564498 0.564498l-115.722161 129.83462c-8.467475 9.031974-9.031974 24.273429-0.564498 33.869901 0.564498 0.564498 1.128997 1.128997 1.693495 1.128997l7.338479 5.080485c9.031974 9.596472 23.708931 6.209482 32.176406-2.822492l56.449835-63.788313c3.951488-4.515987 11.854465-1.693495 11.854465 4.515987l0 309.909592c0 18.063947 14.112459 32.740904 32.176406 32.740904 17.499449 0 32.176406-14.676957 32.176406-32.740904l0-309.909592c0-6.209482 7.902977-9.031974 11.854465-4.515987l58.707828 65.481808c9.031974 9.596472 23.144432 12.418964 32.176406 2.822492l7.338479-5.080485c0.564498-0.564498 1.128997-0.564498 1.693495-1.128997 8.467475-9.596472 7.902977-24.273429-0.564498-33.869901L536.273429 514.822492z" p-id="2102" fill="#1f52d9" data-darkreader-inline-fill="" style="--darkreader-inline-fill:#3151a7;"></path></svg>