<?xml version="1.0" encoding="UTF-8"?>
<svg width="21px" height="23px" viewBox="0 0 21 23" version="1.1" xmlns="http://www.w3.org/2000/svg" xmlns:xlink="http://www.w3.org/1999/xlink">
    <!-- Generator: Sketch 63 (92445) - https://sketch.com -->
    <title>编组 4</title>
    <desc>Created with Sketch.</desc>
    <g id="页面-1" stroke="none" stroke-width="1" fill="none" fill-rule="evenodd">
        <g id="ai启蒙套件" transform="translate(-1153.000000, -222.000000)">
            <g id="编组-4" transform="translate(1150.000000, 220.000000)">
                <rect id="矩形" x="0" y="0" width="27" height="27"></rect>
                <g id="xbee" transform="translate(4.000000, 3.000000)">
                    <path d="M19,20.6460469 L0,20.6460469 L0,5.28004722 C0,4.99571416 0.136166667,4.72579798 0.373666667,4.54238313 L5.92483333,0.22933083 C6.115625,0.0811572599 6.357875,0.0002625 6.60725,0.0002625 L12.39275,0.0002625 C12.6429167,0.0002625 12.884375,0.0811572599 13.0751667,0.22933083 L18.627125,4.54238313 C18.8638333,4.72579798 19,4.99571416 19,5.28004722 L19,20.6460469 Z" id="Stroke-15" stroke="#FFFFFF" stroke-linecap="round" stroke-linejoin="round"></path>
                    <path d="M2.01083333,7.43048409 C2.01083333,7.63873409 1.84220833,7.80935909 1.634,7.80935909 C1.42579167,7.80935909 1.25716667,7.63873409 1.25716667,7.43048409 C1.25716667,7.22135909 1.42579167,7.05073409 1.634,7.05073409 C1.84220833,7.05073409 2.01083333,7.22135909 2.01083333,7.43048409" id="Fill-18" fill="#FFFFFF"></path>
                    <path d="M2.01083333,8.89934659 C2.01083333,9.10847159 1.84220833,9.27909659 1.634,9.27909659 C1.42579167,9.27909659 1.25716667,9.10847159 1.25716667,8.89934659 C1.25716667,8.69109659 1.42579167,8.52047159 1.634,8.52047159 C1.84220833,8.52047159 2.01083333,8.69109659 2.01083333,8.89934659" id="Fill-19" fill="#FFFFFF"></path>
                    <path d="M2.01083333,10.3690841 C2.01083333,10.5782091 1.84220833,10.7488341 1.634,10.7488341 C1.42579167,10.7488341 1.25716667,10.5782091 1.25716667,10.3690841 C1.25716667,10.1599591 1.42579167,9.99020909 1.634,9.99020909 C1.84220833,9.99020909 2.01083333,10.1599591 2.01083333,10.3690841" id="Fill-20" fill="#FFFFFF"></path>
                    <path d="M2.01083333,11.8388216 C2.01083333,12.0479466 1.84220833,12.2176966 1.634,12.2176966 C1.42579167,12.2176966 1.25716667,12.0479466 1.25716667,11.8388216 C1.25716667,11.6296966 1.42579167,11.4599466 1.634,11.4599466 C1.84220833,11.4599466 2.01083333,11.6296966 2.01083333,11.8388216" id="Fill-21" fill="#FFFFFF"></path>
                    <path d="M2.01083333,13.3085591 C2.01083333,13.5176841 1.84220833,13.6874341 1.634,13.6874341 C1.42579167,13.6874341 1.25716667,13.5176841 1.25716667,13.3085591 C1.25716667,13.0994341 1.42579167,12.9288091 1.634,12.9288091 C1.84220833,12.9288091 2.01083333,13.0994341 2.01083333,13.3085591" id="Fill-22" fill="#FFFFFF"></path>
                    <path d="M2.01083333,14.7782966 C2.01083333,14.9865466 1.84220833,15.1571716 1.634,15.1571716 C1.42579167,15.1571716 1.25716667,14.9865466 1.25716667,14.7782966 C1.25716667,14.5691716 1.42579167,14.3985466 1.634,14.3985466 C1.84220833,14.3985466 2.01083333,14.5691716 2.01083333,14.7782966" id="Fill-23" fill="#FFFFFF"></path>
                    <path d="M2.01083333,16.2471591 C2.01083333,16.4562841 1.84220833,16.6269091 1.634,16.6269091 C1.42579167,16.6269091 1.25716667,16.4562841 1.25716667,16.2471591 C1.25716667,16.0380341 1.42579167,15.8682841 1.634,15.8682841 C1.84220833,15.8682841 2.01083333,16.0380341 2.01083333,16.2471591" id="Fill-24" fill="#FFFFFF"></path>
                    <path d="M2.01083333,17.7168966 C2.01083333,17.9260216 1.84220833,18.0957716 1.634,18.0957716 C1.42579167,18.0957716 1.25716667,17.9260216 1.25716667,17.7168966 C1.25716667,17.5077716 1.42579167,17.3380216 1.634,17.3380216 C1.84220833,17.3380216 2.01083333,17.5077716 2.01083333,17.7168966" id="Fill-25" fill="#FFFFFF"></path>
                    <path d="M17.6872583,7.43048409 C17.6872583,7.63873409 17.5186333,7.80935909 17.310425,7.80935909 C17.1022167,7.80935909 16.9335917,7.63873409 16.9335917,7.43048409 C16.9335917,7.22135909 17.1022167,7.05073409 17.310425,7.05073409 C17.5186333,7.05073409 17.6872583,7.22135909 17.6872583,7.43048409" id="Fill-29" fill="#FFFFFF"></path>
                    <path d="M17.6872583,8.89934659 C17.6872583,9.10847159 17.5186333,9.27909659 17.310425,9.27909659 C17.1022167,9.27909659 16.9335917,9.10847159 16.9335917,8.89934659 C16.9335917,8.69109659 17.1022167,8.52047159 17.310425,8.52047159 C17.5186333,8.52047159 17.6872583,8.69109659 17.6872583,8.89934659" id="Fill-30" fill="#FFFFFF"></path>
                    <path d="M17.6872583,10.3690841 C17.6872583,10.5782091 17.5186333,10.7488341 17.310425,10.7488341 C17.1022167,10.7488341 16.9335917,10.5782091 16.9335917,10.3690841 C16.9335917,10.1599591 17.1022167,9.99020909 17.310425,9.99020909 C17.5186333,9.99020909 17.6872583,10.1599591 17.6872583,10.3690841" id="Fill-31" fill="#FFFFFF"></path>
                    <path d="M17.6872583,11.8388216 C17.6872583,12.0479466 17.5186333,12.2176966 17.310425,12.2176966 C17.1022167,12.2176966 16.9335917,12.0479466 16.9335917,11.8388216 C16.9335917,11.6296966 17.1022167,11.4599466 17.310425,11.4599466 C17.5186333,11.4599466 17.6872583,11.6296966 17.6872583,11.8388216" id="Fill-32" fill="#FFFFFF"></path>
                    <path d="M17.6872583,13.3085591 C17.6872583,13.5176841 17.5186333,13.6874341 17.310425,13.6874341 C17.1022167,13.6874341 16.9335917,13.5176841 16.9335917,13.3085591 C16.9335917,13.0994341 17.1022167,12.9288091 17.310425,12.9288091 C17.5186333,12.9288091 17.6872583,13.0994341 17.6872583,13.3085591" id="Fill-33" fill="#FFFFFF"></path>
                    <path d="M17.6872583,14.7782966 C17.6872583,14.9865466 17.5186333,15.1571716 17.310425,15.1571716 C17.1022167,15.1571716 16.9335917,14.9865466 16.9335917,14.7782966 C16.9335917,14.5691716 17.1022167,14.3985466 17.310425,14.3985466 C17.5186333,14.3985466 17.6872583,14.5691716 17.6872583,14.7782966" id="Fill-34" fill="#FFFFFF"></path>
                    <path d="M17.6872583,16.2471591 C17.6872583,16.4562841 17.5186333,16.6269091 17.310425,16.6269091 C17.1022167,16.6269091 16.9335917,16.4562841 16.9335917,16.2471591 C16.9335917,16.0380341 17.1022167,15.8682841 17.310425,15.8682841 C17.5186333,15.8682841 17.6872583,16.0380341 17.6872583,16.2471591" id="Fill-35" fill="#FFFFFF"></path>
                    <path d="M17.6872583,17.7168966 C17.6872583,17.9260216 17.5186333,18.0957716 17.310425,18.0957716 C17.1022167,18.0957716 16.9335917,17.9260216 16.9335917,17.7168966 C16.9335917,17.5077716 17.1022167,17.3380216 17.310425,17.3380216 C17.5186333,17.3380216 17.6872583,17.5077716 17.6872583,17.7168966" id="Fill-36" fill="#FFFFFF"></path>
                    <path d="M12.1942792,0 L12.1942792,4.399561 C12.1942792,4.44211413 12.1523208,4.47745486 12.1000708,4.47745486 L6.8806125,4.47745486 C6.8283625,4.47745486 6.7856125,4.44211413 6.7856125,4.399561 L6.7856125,0" id="Stroke-38" stroke="#FFFFFF"></path>
                    <path d="M8.98779167,6.99902955 L6.875625,6.99902955 C6.82654167,6.99902955 6.78616667,6.95440455 6.78616667,6.90015455 L6.78616667,6.45827955 C6.78616667,6.40315455 6.82654167,6.35940455 6.875625,6.35940455 L8.98779167,6.35940455 C9.036875,6.35940455 9.07725,6.40315455 9.07725,6.45827955 L9.07725,6.90015455 C9.07725,6.95440455 9.036875,6.99902955 8.98779167,6.99902955" id="Fill-39" fill="#FFFFFF"></path>
                    <path d="M12.1045833,6.99902955 L9.99241667,6.99902955 C9.94333333,6.99902955 9.90295833,6.95440455 9.90295833,6.90015455 L9.90295833,6.45827955 C9.90295833,6.40315455 9.94333333,6.35940455 9.99241667,6.35940455 L12.1045833,6.35940455 C12.1536667,6.35940455 12.1940417,6.40315455 12.1940417,6.45827955 L12.1940417,6.90015455 C12.1940417,6.95440455 12.1536667,6.99902955 12.1045833,6.99902955" id="Fill-40" fill="#FFFFFF"></path>
                    <path d="M8.98779167,8.38844205 L6.875625,8.38844205 C6.82654167,8.38844205 6.78616667,8.34381705 6.78616667,8.28956705 L6.78616667,7.84856705 C6.78616667,7.79256705 6.82654167,7.74881705 6.875625,7.74881705 L8.98779167,7.74881705 C9.036875,7.74881705 9.07725,7.79256705 9.07725,7.84856705 L9.07725,8.28956705 C9.07725,8.34381705 9.036875,8.38844205 8.98779167,8.38844205" id="Fill-41" fill="#FFFFFF"></path>
                    <path d="M12.1045833,8.38844205 L9.99241667,8.38844205 C9.94333333,8.38844205 9.90295833,8.34381705 9.90295833,8.28956705 L9.90295833,7.84856705 C9.90295833,7.79256705 9.94333333,7.74881705 9.99241667,7.74881705 L12.1045833,7.74881705 C12.1536667,7.74881705 12.1940417,7.79256705 12.1940417,7.84856705 L12.1940417,8.28956705 C12.1940417,8.34381705 12.1536667,8.38844205 12.1045833,8.38844205" id="Fill-42" fill="#FFFFFF"></path>
                    <path d="M8.98779167,9.77872955 L6.875625,9.77872955 C6.82654167,9.77872955 6.78616667,9.73410455 6.78616667,9.67897955 L6.78616667,9.23797955 C6.78616667,9.18285455 6.82654167,9.13910455 6.875625,9.13910455 L8.98779167,9.13910455 C9.036875,9.13910455 9.07725,9.18285455 9.07725,9.23797955 L9.07725,9.67897955 C9.07725,9.73410455 9.036875,9.77872955 8.98779167,9.77872955" id="Fill-43" fill="#FFFFFF"></path>
                    <path d="M12.1045833,9.77872955 L9.99241667,9.77872955 C9.94333333,9.77872955 9.90295833,9.73410455 9.90295833,9.67897955 L9.90295833,9.23797955 C9.90295833,9.18285455 9.94333333,9.13910455 9.99241667,9.13910455 L12.1045833,9.13910455 C12.1536667,9.13910455 12.1940417,9.18285455 12.1940417,9.23797955 L12.1940417,9.67897955 C12.1940417,9.73410455 12.1536667,9.77872955 12.1045833,9.77872955" id="Fill-44" fill="#FFFFFF"></path>
                    <line x1="4.25014167" y1="11.8388216" x2="14.7500167" y2="11.8388216" id="Stroke-47" stroke="#FFFFFF" stroke-width="0.5" stroke-linecap="round" stroke-linejoin="round"></line>
                    <line x1="4.25014167" y1="18.1920216" x2="14.7500167" y2="18.1920216" id="Stroke-48" stroke="#FFFFFF" stroke-width="0.5" stroke-linecap="round" stroke-linejoin="round"></line>
                    <polygon id="Fill-49" fill="#FFFFFF" points="4.5578625 13.4153966 5.94327917 16.7220216 6.7666125 16.7220216 5.6622375 13.4153966"></polygon>
                    <polygon id="Fill-50" fill="#FFFFFF" points="6.549775 13.4153966 7.37231667 13.4153966 4.77406667 16.7220216 3.7354 16.7220216"></polygon>
                    <path d="M11.7021792,14.5552591 C11.9404708,14.6060091 12.1787625,14.8737591 12.0275542,15.0916341 L11.0530125,15.0916341 C11.0957625,14.6593841 11.4638875,14.5036341 11.7021792,14.5552591 L11.7021792,14.5552591 Z M12.6331792,15.5230091 C12.6331792,15.5230091 12.8683042,15.1590091 12.7202625,14.5552591 C12.5215542,13.7458841 11.4448875,13.8438841 10.8970542,14.2376341 C10.8733042,14.2542591 10.8503458,14.2726341 10.8281792,14.2910091 C10.2684708,14.7608841 9.86630417,16.0436341 10.5550542,16.5712591 C11.0094708,16.9195091 12.1573875,16.6465091 12.5033458,15.9561341 L11.7670958,15.9561341 C11.4860542,16.2667591 10.7711792,16.1302591 11.0094708,15.5230091 L12.6331792,15.5230091 Z" id="Fill-51" fill="#FFFFFF"></path>
                    <path d="M14.1981458,14.5552591 C14.4364375,14.6060091 14.6747292,14.8737591 14.5227292,15.0916341 L13.5489792,15.0916341 C13.5917292,14.6593841 13.9598542,14.5036341 14.1981458,14.5552591 L14.1981458,14.5552591 Z M15.1291458,15.5230091 C15.1291458,15.5230091 15.3642708,15.1590091 15.2162292,14.5552591 C15.0175208,13.7458841 13.9408542,13.8438841 13.3930208,14.2376341 C13.3692708,14.2542591 13.3463125,14.2726341 13.3241458,14.2910091 C12.7644375,14.7608841 12.3622708,16.0436341 13.0510208,16.5712591 C13.5054375,16.9195091 14.6533542,16.6465091 14.9993125,15.9561341 L14.2630625,15.9561341 C13.9820208,16.2667591 13.2671458,16.1302591 13.5054375,15.5230091 L15.1291458,15.5230091 Z" id="Fill-52" fill="#FFFFFF"></path>
                    <path d="M9.21317917,14.7722591 L8.14917917,14.7722591 L8.31147083,13.9742591 L9.41584583,13.9698841 C9.86472083,14.1588841 9.58842917,14.6812591 9.21317917,14.7722591 M8.92105417,16.1678841 L7.85705417,16.1678841 L8.01934583,15.3690091 L9.12372083,15.3637591 C9.5733875,15.5527591 9.29630417,16.0742591 8.92105417,16.1678841 M10.2740125,13.9646341 C10.1433875,13.2112591 9.2480125,13.3127591 9.2480125,13.3127591 L7.7470125,13.3127591 L7.05509583,16.7226341 L9.15459583,16.7226341 C9.86234583,16.4890091 10.5621792,15.5615091 9.82672083,14.9078841 C9.9415125,14.6961341 10.4030542,14.7188841 10.2740125,13.9646341" id="Fill-53" fill="#FFFFFF"></path>
                </g>
            </g>
        </g>
    </g>
</svg>