<?xml version="1.0" standalone="no"?><!DOCTYPE svg PUBLIC "-//W3C//DTD SVG 1.1//EN" "http://www.w3.org/Graphics/SVG/1.1/DTD/svg11.dtd"><svg t="1562063341540" class="icon" viewBox="0 0 1433 1024" version="1.1" xmlns="http://www.w3.org/2000/svg" p-id="1136" xmlns:xlink="http://www.w3.org/1999/xlink" width="279.8828125" height="200"><defs><style type="text/css"></style></defs><path d="M1350.4 83.2c-38.4-38.4-115.2-38.4-153.6 0L531.2 716.8 236.8 428.8c-44.8-38.4-115.2-38.4-153.6 0-19.2 19.2-32 44.8-32 70.4s12.8 64 32 83.2l377.6 358.4c12.8 12.8 12.8 12.8 19.2 12.8 19.2 12.8 38.4 19.2 64 19.2 32 0 70.4-12.8 89.6-38.4C1107.2 473.6 1350.4 243.2 1363.2 236.8c19.2-19.2 32-51.2 32-83.2-12.8-19.2-25.6-51.2-44.8-70.4z" fill="#209BFA" p-id="1137"></path></svg>