<?xml version="1.0" encoding="utf-8"?>
<!-- Generator: Adobe Illustrator 19.0.0, SVG Export Plug-In . SVG Version: 6.00 Build 0)  -->
<svg version="1.1" id="图层_1" xmlns="http://www.w3.org/2000/svg" xmlns:xlink="http://www.w3.org/1999/xlink" x="0px" y="0px"
	 viewBox="-295 387 20 20" style="enable-background:new -295 387 20 20;" xml:space="preserve">
<style type="text/css">
	.st0{fill:#3488fe;}
</style>
<title>sprite-library</title>
<desc>Created with Sketch.</desc>
<g id="Page-1">
	<g id="sprite-library">
		<path id="Combined-Shape" class="st0" d="M-276.5,389.5h0.8c0.4,0,0.8,0.3,0.8,0.8s-0.3,0.8-0.8,0.8h-0.8v0.8
			c0,0.4-0.3,0.8-0.8,0.8s-0.8-0.3-0.8-0.8V391h-0.8c-0.4,0-0.8-0.3-0.8-0.8s0.3-0.8,0.8-0.8h0.8v-0.8c0-0.4,0.3-0.8,0.8-0.8
			s0.8,0.3,0.8,0.8V389.5z"/>
	</g>
</g>
<path id="XMLID_1_" class="st0" d="M-281.4,399.3c0,0.5-0.3,0.9-0.7,1.2l-2.2,1.3c-0.4,0.2-1,0.2-1.4,0l-1-0.6l3.1-1.8
	c0.3-0.2,0.5-0.6,0.5-0.9l0-3.5l1,0.6c0.4,0.2,0.7,0.7,0.7,1.2V399.3z M-287,397.5l0,3.5l-0.9-0.5c-0.4-0.2-0.7-0.7-0.7-1.2v-2.6
	c0-0.5,0.3-0.9,0.7-1.2l2.2-1.3c0.4-0.2,1-0.2,1.4,0l1,0.6l-3.1,1.8C-286.8,396.8-287,397.1-287,397.5 M-279.3,393.9l-5.1-2.9
	c-0.4-0.2-1-0.2-1.4,0l-5.1,2.9c-0.4,0.2-0.7,0.7-0.7,1.2v5.8c0,0.5,0.3,0.9,0.7,1.2l5.1,2.9c0.4,0.2,1,0.2,1.4,0l5.1-2.9
	c0.4-0.2,0.7-0.7,0.7-1.2v-5.8C-278.6,394.6-278.8,394.1-279.3,393.9"/>
</svg>
