<?xml version="1.0" encoding="iso-8859-1"?>
<!-- Generator: Adobe Illustrator 19.0.0, SVG Export Plug-In . SVG Version: 6.00 Build 0)  -->
<svg version="1.1" id="Layer_1" xmlns="http://www.w3.org/2000/svg" xmlns:xlink="http://www.w3.org/1999/xlink" x="0px" y="0px"
	 viewBox="0 0 512 512" style="enable-background:new 0 0 512 512;" xml:space="preserve">
<circle style="fill:#C1D354;" cx="256" cy="256" r="256"/>
<path style="fill:#9DB138;" d="M241.6,109.901v-0.044h-74.12v51.128h-15.88v46.72v28.183c0,7.805,3.098,15.662,9.29,21.681
	l38.172,38.172v62.646c0,10.952,4.145,21.289,11.694,29.361l114.644,114.65c74.099-20.831,134.569-74.14,165.071-143.637
	L241.6,109.901z"/>
<path style="fill:#5D6D7E;" d="M244.383,402.14c-12.101,0-23.478-4.554-32.026-12.828c-8.576-8.259-13.281-19.264-13.281-30.932
	v-91.835h10.941v91.835c0,8.85,3.574,17.185,10.071,23.465c6.482,6.259,15.114,9.708,24.292,9.708
	c9.162,0,17.805-3.448,24.294-9.708c6.482-6.28,10.058-14.615,10.058-23.465v-71.27c0-7.836,3.167-15.196,8.891-20.741
	c5.745-5.553,13.373-8.586,21.478-8.586c8.123,0,15.744,3.034,21.489,8.586c5.737,5.545,8.896,12.905,8.896,20.741v43.666H328.53
	v-43.666c0-5.012-2.022-9.725-5.688-13.266c-3.668-3.535-8.538-5.486-13.737-5.486c-5.176,0-10.063,1.951-13.729,5.486
	c-3.653,3.54-5.683,8.253-5.683,13.266v71.27c0,11.668-4.713,22.674-13.261,30.932C267.855,397.586,256.479,402.14,244.383,402.14z"
	/>
<rect x="323.456" y="381.747" style="fill:#F2F9FF;" width="21.112" height="20.39"/>
<rect x="333.978" y="381.747" style="fill:#CEE2F2;" width="10.578" height="20.39"/>
<path style="fill:#283A4D;" d="M307.61,381.75h52.782v-40.778c0-2.619-1.021-5.225-3.09-7.212c-2.058-1.994-4.769-2.985-7.473-2.985
	h-31.662c-2.688,0-5.399,0.991-7.457,2.985c-2.058,1.987-3.1,4.593-3.1,7.212V381.75L307.61,381.75z"/>
<rect x="320.282" y="343.014" style="fill:#5D6D7E;" width="27.461" height="26.504"/>
<path style="fill:#283A4D;" d="M257.475,235.858c0,7.844-3.105,15.69-9.29,21.696c-6.216,5.99-14.339,8.993-22.459,8.993h-42.353
	c-8.133,0-16.246-3.003-22.454-8.993c-6.216-6.006-9.313-13.85-9.313-21.696V160.98h105.866v74.877H257.475z"/>
<path style="fill:#F2F9FF;" d="M167.488,109.86v51.121H241.6V109.86H167.488z M195.003,140.539h-17.971v-10.227h17.971V140.539z
	 M232.072,140.539h-17.999v-10.227h17.999V140.539z"/>
<g>
	<rect x="174.131" y="194.414" style="fill:#5D6D7E;" width="60.841" height="5.724"/>
	<rect x="174.131" y="181.12" style="fill:#5D6D7E;" width="60.841" height="5.727"/>
	<rect x="174.131" y="207.693" style="fill:#5D6D7E;" width="60.841" height="5.729"/>
	<rect x="179.763" y="221.005" style="fill:#5D6D7E;" width="49.544" height="5.716"/>
</g>
<path style="fill:#CEE2F2;" d="M204.541,109.86v51.139H241.6V109.86H204.541z M232.064,140.539h-17.971v-10.22h17.974v10.22H232.064
	z"/>
<rect x="203.034" y="109.86" style="fill:#B8D1E6;" width="3.005" height="51.121"/>
<g>
</g>
<g>
</g>
<g>
</g>
<g>
</g>
<g>
</g>
<g>
</g>
<g>
</g>
<g>
</g>
<g>
</g>
<g>
</g>
<g>
</g>
<g>
</g>
<g>
</g>
<g>
</g>
<g>
</g>
</svg>
