<svg id="图层_1" data-name="图层 1" xmlns="http://www.w3.org/2000/svg" viewBox="0 0 40 40"><defs><style>.cls-1{fill:#fff;}.cls-2{fill:#ff9739;}.cls-3,.cls-4{fill:#f26716;}.cls-4{font-size:4px;font-family:ArialNarrow, Arial;}</style></defs><title>图标5</title><path class="cls-1" d="M4.05,39.46A3.5,3.5,0,0,1,.55,36V4A3.5,3.5,0,0,1,4.05.46h32A3.5,3.5,0,0,1,39.55,4V36a3.5,3.5,0,0,1-3.5,3.5Z" transform="translate(-0.05 0.04)"/><path class="cls-2" d="M36.05,1a3,3,0,0,1,3,3V36a3,3,0,0,1-3,3h-32a3,3,0,0,1-3-3V4a3,3,0,0,1,3-3h32m0-1h-32a4,4,0,0,0-4,4V36a4,4,0,0,0,4,4h32a4,4,0,0,0,4-4V4a4,4,0,0,0-4-4Z" transform="translate(-0.05 0.04)"/><path class="cls-3" d="M9.54,17.62a5.33,5.33,0,0,1-.48-1.87,8.53,8.53,0,0,1,.54-3.93c.88-1.61,3.57-6.65,12.32-5.77a11.54,11.54,0,0,1,9.54,6.81A7.74,7.74,0,0,1,32,18.13a10,10,0,0,1-1.78,3.71,1.46,1.46,0,0,1-.16.19,8.57,8.57,0,0,0-2,5.35s0,.57.08,1.27a2.32,2.32,0,0,1-1.65,2.46,19.8,19.8,0,0,0-5.27,2.47,2.35,2.35,0,0,1-3.35-.81l-.48-.89a2.28,2.28,0,0,0-2-1.21,10.92,10.92,0,0,0-1.71.13c-2.84.39-2.65-.34-3-.78a2.77,2.77,0,0,1-.16-1.48,2.38,2.38,0,0,0-.29-1.31l-.38-.69.29-.44-.63-.44v-.12a2.28,2.28,0,0,0-1.11-2,.9.9,0,0,1-.5-.63c-.13-.64.83-2.24,1.44-3.17a2.25,2.25,0,0,0,.23-2.1Z" transform="translate(-0.05 0.04)"/><rect class="cls-1" x="15.66" y="11.08" width="4.51" height="0.58" transform="translate(12.45 -9.1) rotate(42.81)"/><circle class="cls-1" cx="25.76" cy="10.79" r="1.66"/><circle class="cls-1" cx="14.24" cy="17.27" r="1.66"/><circle class="cls-1" cx="20.74" cy="20" r="1.42"/><circle class="cls-1" cx="25.76" cy="16.53" r="1.2"/><circle class="cls-1" cx="16.31" cy="9.99" r="1.2"/><rect class="cls-1" x="21.12" y="11.59" width="5.3" height="0.69" transform="translate(-2.83 13.52) rotate(-30)"/><rect class="cls-1" x="14.25" y="15.55" width="5.3" height="0.69" transform="translate(-5.44 9.48) rotate(-27.1)"/><rect class="cls-1" x="17.98" y="17.8" width="5.3" height="0.69" transform="translate(4.37 40.37) rotate(-95.18)"/><rect class="cls-1" x="21.27" y="15.13" width="5.3" height="0.69" transform="translate(10.89 -9.84) rotate(30)"/><circle class="cls-1" cx="19.79" cy="14.13" r="2.71"/><text class="cls-4" transform="translate(18.24 15.61)">AI</text></svg>