<svg id="图层_1" data-name="图层 1" xmlns="http://www.w3.org/2000/svg" viewBox="0 0 40 40"><defs><style>.cls-1,.cls-7,.cls-8{fill:#fff;}.cls-2{fill:#ff9739;}.cls-3,.cls-6{fill:none;}.cls-3,.cls-7,.cls-8{stroke:#f26716;}.cls-3,.cls-6,.cls-7{stroke-linecap:round;stroke-linejoin:round;}.cls-3,.cls-6,.cls-7,.cls-8{stroke-width:0.2px;}.cls-4{fill:#f26716;}.cls-5{fill:#f26c16;}.cls-6{stroke:#fff;}.cls-8{stroke-miterlimit:10;}</style></defs><title>面性图标3</title><path class="cls-1" d="M4,39.5A3.5,3.5,0,0,1,.5,36V4A3.5,3.5,0,0,1,4,.5H36A3.5,3.5,0,0,1,39.5,4V36A3.5,3.5,0,0,1,36,39.5Z"/><path class="cls-2" d="M36,1a3,3,0,0,1,3,3V36a3,3,0,0,1-3,3H4a3,3,0,0,1-3-3V4A3,3,0,0,1,4,1H36m0-1H4A4,4,0,0,0,0,4V36a4,4,0,0,0,4,4H36a4,4,0,0,0,4-4V4a4,4,0,0,0-4-4Z"/><path class="cls-3" d="M6,22.58v-.47l-.1-.2v-.3a3,3,0,0,1,.48-.16c.24-.06.47-.12.71-.16a.26.26,0,0,0,.15,0H9.45c.93,0,1.86,0,2.79,0s2.13,0,3.19,0l1,.06a2,2,0,0,1,.35.06l.35.11a2.12,2.12,0,0,1,.59.4,1.7,1.7,0,0,1,.52,1.2v3a1.87,1.87,0,0,0,0,.4.44.44,0,0,0,0,.1s0,.05,0,.08,0,.12.09.12h.18v1"/><path class="cls-4" d="M22.26,7.47,24.13,9.1l.6.52a2,2,0,0,0,0,.23,1.37,1.37,0,0,0,.09.49,2.28,2.28,0,0,0,.69,1l5.85,5.1.08.06.09.05a1.21,1.21,0,0,0,.2.09,2.7,2.7,0,0,0,.57.08,5.08,5.08,0,0,1,.67.07,1.49,1.49,0,0,1-.18,2.95h-.58a2.21,2.21,0,0,1-.37,0,2.17,2.17,0,0,1-.35-.07,2.13,2.13,0,0,1-.33-.11,2.2,2.2,0,0,1-.31-.15,1.65,1.65,0,0,1-.27-.19s0,0,0,0a.1.1,0,0,1-.05,0l-4.4-3.83-2.31-2-1.28-1.11-.72-.64"/><path class="cls-4" d="M33.93,17.44h1.3v4H30.75a.9.9,0,1,1,0-1.79h.71"/><path class="cls-3" d="M14.38,10.91a.06.06,0,0,1,0-.06s0,0,0,0h0v0s0,0,0,0l.27-.71.45-1.2c0-.08.07-.17.1-.26a1.8,1.8,0,0,1,3.31-.1c.08.18.17.37.25.56l.15.32a1.5,1.5,0,0,1,0,1.14c-1,2.73-2,5.46-3.08,8.18l-.26.69a.36.36,0,0,1,0,.09,1,1,0,0,1-.53.49l-1.25.49-.14.07a.64.64,0,0,0-.25.24.94.94,0,0,0-.06.15c0,.1-.08.19-.11.29"/><path class="cls-3" d="M6,23.38v-.45"/><path class="cls-3" d="M6,24.17v-.45"/><path class="cls-3" d="M6,25v-.45"/><path class="cls-3" d="M6,25.07S6,25,6,25s0,.07,0,.1v.15l0,.1"/><polygon class="cls-4" points="19.7 33.95 19.7 28.28 17.91 28.28 6.57 28.28 4.77 28.28 4.77 29.37 4.77 32.85 4.78 33.95 6.57 33.95 17.91 33.95 19.7 33.95"/><polyline class="cls-3" points="6.02 24.27 5.97 24.17 6.02 24.27 6.02 24.42"/><path class="cls-4" d="M11.42,27.18H14.9a.8.8,0,0,0,.8-.8V23a.8.8,0,0,0-.8-.8H11.47"/><line class="cls-3" x1="5.97" y1="24.52" x2="6.02" y2="24.42"/><line class="cls-3" x1="6.02" y1="23.63" x2="5.97" y2="23.72"/><line class="cls-3" x1="6.02" y1="22.83" x2="5.97" y2="22.93"/><path class="cls-3" d="M6,25.76v-.44l0-.1"/><path class="cls-3" d="M6.59,26"/><path class="cls-3" d="M6,26.11"/><path class="cls-3" d="M7.08,21.29l.08,0,.1,0h0l0,0h.48l1.3-.05h.34c.93,0,1.86,0,2.79,0s2.08,0,3.13,0c.38,0,.76,0,1.14.07"/><path class="cls-3" d="M16.81,27.78H5.62v.3H18.85v-.3h-2V23.1a1.35,1.35,0,0,0-.61-1.21,2.66,2.66,0,0,0-1.38-.28H5.87"/><path class="cls-3" d="M6,26.81s0,.07,0,.1v.37l-.1.2"/><polyline class="cls-3" points="5.97 26.56 6.02 26.66 6.02 26.81"/><path class="cls-3" d="M6,26.56v-.45L6,26"/><path class="cls-3" d="M6.59,26.66"/><path class="cls-3" d="M6,26.91"/><polyline class="cls-3" points="5.97 25.77 6.02 25.86 6.02 26.01"/><polyline class="cls-3" points="5.97 23.38 6.02 23.48 6.02 23.63"/><polyline class="cls-3" points="5.97 22.58 6.02 22.68 6.02 22.83"/><path class="cls-5" d="M12.22,26.39a.79.79,0,0,1-.8.79H8a.8.8,0,0,1-.8-.8V23a.79.79,0,0,1,.8-.79h3.38a.79.79,0,0,1,.8.79Z"/><path class="cls-3" d="M13.39,20.86s0-.05,0-.07a.51.51,0,0,0,0,.42"/><path class="cls-3" d="M18.92,12.35c.06.53.11,1.07.17,1.61a.9.9,0,0,1-.05.36q-1.32,3.49-2.63,7"/><path class="cls-3" d="M6,25.86"/><path class="cls-3" d="M6,23.48"/><path class="cls-3" d="M6,22.68"/><path class="cls-4" d="M32.31,16.89l.12,0a1.4,1.4,0,0,1,1.54.88h0a.56.56,0,0,1,0,.12,1.39,1.39,0,0,1-2.26,1.42,1.38,1.38,0,0,1-.13-2l.08-.09A1.26,1.26,0,0,1,32.31,16.89Z"/><path class="cls-3" d="M34.73,17.35"/><path class="cls-3" d="M34.54,17.38"/><path class="cls-3" d="M35,17.44"/><path class="cls-3" d="M34.48,17.44"/><circle class="cls-6" cx="32.64" cy="18.21" r="0.97"/><path class="cls-3" d="M34.78,17.38"/><path class="cls-3" d="M34.93,17.38"/><circle class="cls-6" cx="30.73" cy="20.53" r="0.46"/><circle class="cls-3" cx="30.75" cy="20.53" r="0.8"/><path class="cls-3" d="M30.08,20.16a3.47,3.47,0,0,1-.29-.25"/><path class="cls-3" d="M31.05,21.42"/><path class="cls-4" d="M21.33,11.9l8.24,7.18a.51.51,0,0,1,.17.33l0,.37a.13.13,0,0,1-.21.11l-8.83-7.68"/><path class="cls-7" d="M18.35,12.17a3.18,3.18,0,1,0-1-5.18,1.81,1.81,0,0,1-.82.49"/><path class="cls-3" d="M17.84,9.35h0"/><path class="cls-3" d="M11,28.08"/><path class="cls-3" d="M11,28.28"/><path class="cls-3" d="M10.67,28.08"/><path class="cls-3" d="M10.67,28.28"/><path class="cls-3" d="M11.88,28.08"/><path class="cls-3" d="M11.88,28.28"/><path class="cls-3" d="M11.56,28.08"/><path class="cls-3" d="M11.56,28.28"/><path class="cls-3" d="M14.32,28.08"/><path class="cls-3" d="M14.32,28.28"/><path class="cls-3" d="M13.8,28.08"/><path class="cls-3" d="M13.8,28.28"/><path class="cls-3" d="M10.16,28.08"/><path class="cls-3" d="M10.16,28.28"/><path class="cls-3" d="M12.59,28.08"/><path class="cls-3" d="M12.59,28.28"/><path class="cls-3" d="M12.91,28.08"/><path class="cls-3" d="M12.91,28.28"/><path class="cls-3" d="M11.32,22.31"/><line class="cls-3" x1="5.87" y1="27.48" x2="5.87" y2="27.78"/><path class="cls-4" d="M17.45,7.53a2.73,2.73,0,0,1,4.79,1,2.71,2.71,0,0,1-.88,2.75,2.74,2.74,0,0,1-2.85.43"/><line class="cls-3" x1="20.09" y1="12.38" x2="16.71" y2="21.34"/><path class="cls-3" d="M14.29,28.08"/><path class="cls-3" d="M14.29,28.28"/><path class="cls-3" d="M14,28.28"/><path class="cls-3" d="M14,28.08"/><path class="cls-3" d="M10.51,28.08"/><path class="cls-3" d="M10.51,28.28"/><path class="cls-3" d="M10.19,28.28"/><path class="cls-3" d="M10.19,28.08"/><path class="cls-3" d="M13.53,28.28"/><path class="cls-3" d="M13.53,28.08"/><path class="cls-3" d="M11.84,28.08"/><path class="cls-3" d="M11.84,28.28"/><path class="cls-3" d="M10.94,28.08"/><path class="cls-3" d="M10.94,28.28"/><path class="cls-3" d="M14.73,10.08c.21.57.41,1.15.62,1.72a1.89,1.89,0,0,1,.07,1.61L14.26,16.5c0,.06,0,.13-.08.19a.83.83,0,0,1-.09.16,1,1,0,0,1-.2.26,2.17,2.17,0,0,1-.29.24,3.91,3.91,0,0,1-.44.26l-.07,0-.68.36-.54.29"/><path class="cls-3" d="M12.64,28.28"/><path class="cls-3" d="M12.64,28.08"/><path class="cls-8" d="M18.44,9.81a1.64,1.64,0,1,0-2.11,1A1.64,1.64,0,0,0,18.44,9.81Z"/><circle class="cls-4" cx="16.9" cy="9.24" r="0.94"/><path class="cls-3" d="M14.5,11.33l-.12-.41c.12.4.24.81.35,1.21a1.63,1.63,0,0,1,.09.49s0,.07,0,.11l0,.13a1.43,1.43,0,0,1-.09.27l-1.16,3.09a1.09,1.09,0,0,1-.71.75l-.43.22-.19.09a.1.1,0,0,0,0,.06l-.26.69h0v0l0,.11a1.21,1.21,0,0,1,0,.18q-.09.29-.21.57c-.28.76-.57,1.52-.86,2.28"/><path class="cls-3" d="M14.51,10.5"/><path class="cls-4" d="M18.13,10.62a2.36,2.36,0,0,0-1.41,2.06l1-.14.89-.87-.51-.86a8.27,8.27,0,0,0-2.4,4.08l1,.13a9.22,9.22,0,0,1,.74-3.17l-1-.27a13.31,13.31,0,0,0-.85,3c0,.47.73.71.93.25.3-.71.59-1.42.86-2.14.2-.54-.64-.87-.92-.39a45,45,0,0,0-2,4.06.5.5,0,0,0,.78.6c1.22-1.12,1.24-2.65,1.57-4.19l-1-.13a9,9,0,0,1-.89,4.14l1,.26c.28-.88.57-1.75.88-2.62.2-.55-.62-.84-.91-.38-1.12,1.75-1.57,3.65-3.13,5.13l.71.71a6.47,6.47,0,0,1,.61-.67c.45-.46-.26-1.17-.71-.71a6.47,6.47,0,0,0-.61.67c-.41.48.24,1.16.71.71,1.61-1.54,2.12-3.51,3.28-5.34l-.91-.38c-.32.86-.61,1.74-.88,2.62-.19.62.75.86,1,.26a9.66,9.66,0,0,0,.93-4.4c-.06-.51-.86-.73-1-.13-.27,1.31-.24,2.77-1.3,3.74l.78.61a43.65,43.65,0,0,1,2-4l-.92-.39c-.23.65-.48,1.27-.75,1.9l.93.26a12.24,12.24,0,0,1,.82-2.75c.18-.62-.77-.87-1-.27A9.82,9.82,0,0,0,15.66,15a.51.51,0,0,0,1,.13,7.88,7.88,0,0,1,1.94-3.48.5.5,0,0,0-.51-.86c-.76.34-1.72,1.06-1.35,2a.51.51,0,0,0,1-.13l.92-1.2c.58-.28.07-1.14-.51-.86Z"/><path class="cls-4" d="M14.85,15.46c-.71,1.61-2.2,2.84-2.67,4.52a.5.5,0,0,0,.84.48,19.53,19.53,0,0,1,2-2,3.43,3.43,0,0,0,1.25-1.34c.21-.54.2-1.18.41-1.75a12.17,12.17,0,0,1,1.37-3c.39-.51-.48-1-.86-.5a14.7,14.7,0,0,0-1.78,4.31A3.62,3.62,0,0,1,13.85,18a18.11,18.11,0,0,0-1.54,1.73l.84.48a7,7,0,0,1,1.42-2.18A10.92,10.92,0,0,0,15.71,16c.26-.58-.6-1.09-.86-.5Z"/><path class="cls-4" d="M16.52,11.34a.13.13,0,0,1,0,.06c-.25-.51-1.05-.15-.91.39a3,3,0,0,1-.36,2.29,19,19,0,0,0-.66,2c-.2.61.77.87,1,.26a23.28,23.28,0,0,1,1-2.56,3.23,3.23,0,0,0,0-2.23l-.91.39c.29.58.84.55,1.36.29s.07-1.15-.51-.86Z"/><path class="cls-4" d="M17.05,11.93c-.18,1.55-1.2,2.86-1.67,4.33-.2.62.76.88,1,.27.52-1.58,1.52-2.92,1.71-4.6.07-.64-.93-.64-1,0Z"/><path class="cls-4" d="M15.59,11.48a.5.5,0,0,0,0-1,.5.5,0,0,0,0,1Z"/><path class="cls-4" d="M15.11,11.11c.1.39.51.73.53,1.11a.5.5,0,0,0,1,0c0-.51.12-1.16-.46-1.41s-1.09.6-.5.86a3.74,3.74,0,0,1,0,.55h1a1.62,1.62,0,0,0-.21-.74,2.6,2.6,0,0,1-.35-.63.5.5,0,0,0-1,.26Z"/><path class="cls-4" d="M16,11.71a.5.5,0,0,0,0-1,.5.5,0,0,0,0,1Z"/><path class="cls-4" d="M15.53,11.42a.75.75,0,0,0,.41.32c.6.25.86-.72.27-1l-.07,0,.3.23-.05-.06c-.35-.54-1.21,0-.86.5Z"/><path class="cls-4" d="M16,11.74a2.27,2.27,0,0,0,1.55.19c.08,0,.15-.11.23-.15s.23,0,.33-.06a.8.8,0,0,0,.29-.15s.16-.2.17-.2l-.39,0,0,0c-.07-.19-.15-.37-.23-.56.08-.27-.24,0-.41,0l-.64.15c-.64.13-.37,1.08.26,1a2.86,2.86,0,0,0,1.69-.78c.44-.48-.27-1.18-.7-.71a2.14,2.14,0,0,1-1.25.53c.08.32.17.64.26,1,.55-.11,1.56-.19,1.76-.84a.52.52,0,0,0-.23-.56.61.61,0,0,0-.61,0,.93.93,0,0,0-.26.18c-.1.11-.07.12-.15.15s-.22,0-.33.06-.21.15-.32.2c.27-.11-.19-.09-.29-.12a3.33,3.33,0,0,1-.51-.16c-.6-.22-.87.75-.26,1Z"/><path class="cls-4" d="M17,12.2l0,.13a.5.5,0,0,0,1-.26.93.93,0,0,1,0-.13.5.5,0,0,0-1,.26Z"/><path class="cls-4" d="M17,12.06v.1a.5.5,0,0,0,1,0v-.1a.5.5,0,0,0-1,0Z"/><path class="cls-4" d="M17,12.11a.25.25,0,0,1-.11.18l.87.51a1.18,1.18,0,0,0,.16-.38l-1-.13a.13.13,0,0,0,0,.06c-.22.61.75.87,1,.27a.76.76,0,0,0,.05-.33c0-.53-.85-.71-1-.13l-.06.13c-.35.55.5,1,.87.51a1,1,0,0,0,.24-.69c0-.64-1-.64-1,0Z"/><path class="cls-4" d="M15.42,11.55a3.46,3.46,0,0,0,.15.9c0,.16.12,1,0,1.11l.73.57a.38.38,0,0,1,.13-.3c.44-.46-.26-1.17-.71-.71a1.32,1.32,0,0,0-.38.74c-.06.37.34.86.73.57a1.5,1.5,0,0,0,.54-1.21,3.48,3.48,0,0,0,0-.79,3.88,3.88,0,0,1-.16-.88c0-.65-1-.64-1,0Z"/><path class="cls-4" d="M16,13.83a.5.5,0,0,0,0-1,.5.5,0,0,0,0,1Z"/><path class="cls-4" d="M15.08,15.21a1.23,1.23,0,0,1-.14.31c-.28.58.58,1.08.87.51a5.31,5.31,0,0,0,.23-.55c.23-.6-.74-.87-1-.27Z"/><path class="cls-4" d="M14.69,15.45a1,1,0,0,1-.15.62l.43-.25h-.08l.48.37h0c.27-.58-.59-1.09-.86-.51a1.12,1.12,0,0,0-.12.78.51.51,0,0,0,.48.37H15a.5.5,0,0,0,.43-.25,1.93,1.93,0,0,0,.29-1.13.5.5,0,0,0-1,0Z"/><path class="cls-4" d="M13.55,17.59a8.38,8.38,0,0,1-.9,1.16,3.83,3.83,0,0,0-.77.94c-.29.58.57,1.09.86.51a4.85,4.85,0,0,1,.86-1,8,8,0,0,0,.81-1.1c.35-.54-.51-1-.86-.5Z"/><path class="cls-4" d="M13.54,17.46a3.14,3.14,0,0,0-1.13.91,5.2,5.2,0,0,0-.7,1.6l1,.13a.76.76,0,0,1,0-.15c0-.64-1-.64-1,0a.76.76,0,0,0,0,.15c0,.57.84.67,1,.13a4.66,4.66,0,0,1,.49-1.2,2.22,2.22,0,0,1,.87-.71.5.5,0,0,0-.5-.86Z"/><path class="cls-4" d="M12.86,17.86a1.31,1.31,0,0,0-.83.71h.86c0,.08,0,.17,0,.25a.5.5,0,0,0-.57-.73c-.7.19-.58.72-.77,1.27s-.66,1.05-.24,1.53,1.14-.22.71-.71l0,0,.13.48a4.66,4.66,0,0,1,.38-.93,2.75,2.75,0,0,0,.13-.47,1.1,1.1,0,0,1,0-.18c0-.15,0-.15-.05,0L12,18.32a.68.68,0,0,0,0,.75.5.5,0,0,0,.86,0c.06-.12.1-.2.23-.25.61-.21.35-1.17-.26-1Z"/><path class="cls-4" d="M11.36,20.71c.49.8,1.91,0,2.36-.47A16.56,16.56,0,0,0,15,19a15.25,15.25,0,0,0,1.27-1.54.5.5,0,0,0-.86-.51,5.78,5.78,0,0,1-.76.87c-.29.34-.51.72-.81,1-.46.47-1.21,1.29-1.95,1.2l.43.25a.43.43,0,0,1,0-.07.5.5,0,0,0-.87.51Z"/><path class="cls-4" d="M15.33,17.21a1.6,1.6,0,0,1-1.15,1.46c-.6.22-.34,1.19.27,1a2.64,2.64,0,0,0,1.88-2.43c0-.64-1-.64-1,0Z"/><path class="cls-4" d="M14.73,18.54a2.57,2.57,0,0,1,0,.48c.05-.12.1-.24.14-.36a1.92,1.92,0,0,1-.83.35,4.77,4.77,0,0,0-.83.37c-.57.31-.07,1.17.5.87s1-.31,1.41-.56a1,1,0,0,0,.58-1.15c-.06-.63-1.07-.64-1,0Z"/><path class="cls-4" d="M15.22,16.88a6.14,6.14,0,0,0-.5,1.68c-.09.63.87.9,1,.26a5.16,5.16,0,0,1,.41-1.44c.26-.58-.6-1.09-.87-.5Z"/><path class="cls-4" d="M15.35,19.09a.5.5,0,0,0,0-1,.5.5,0,0,0,0,1Z"/><path class="cls-4" d="M15.35,19.09a.5.5,0,0,0,0-1,.5.5,0,0,0,0,1Z"/><path class="cls-4" d="M14.78,18.89c-.43.36-1.15.05-1.37.72a.5.5,0,0,0,.23.57,1.67,1.67,0,0,0,.59.11c.64.06.64-.94,0-1-.17,0-.2,0-.09,0s.16.38.23.57v0c-.07.1-.15.19-.23.29.19-.14.51-.09.73-.17a1.77,1.77,0,0,0,.6-.37c.5-.41-.21-1.12-.7-.71Z"/><path class="cls-4" d="M13.89,19.4a2.26,2.26,0,0,0-1.36,1,.5.5,0,0,0,.87.5,1.17,1.17,0,0,1,.76-.53c.61-.21.34-1.17-.27-1Z"/><path class="cls-4" d="M12.89,20.25c-.21,0-.39-.15-.61-.16s-.4.09-.6,0c-.6-.23-.86.74-.27,1a2.16,2.16,0,0,0,.8,0c.22,0,.44.16.68.16a.5.5,0,0,0,0-1Z"/><path class="cls-4" d="M11.09,21.11v0a.5.5,0,0,0,.71-.71h0c-.46-.46-1.17.25-.71.7Z"/><path class="cls-4" d="M11.82,21.18a5.14,5.14,0,0,1,.55-.06c.64,0,.65-1,0-1a5.57,5.57,0,0,0-.82.1c-.63.11-.36,1.08.27,1Z"/><path class="cls-4" d="M12.54,18.26c-.23.38-.6.65-.83,1a1.54,1.54,0,0,0-.31,1.17c.12.63,1.09.37,1-.26,0-.15.33-.62.41-.73a7.33,7.33,0,0,0,.63-.73.5.5,0,0,0-.86-.5Z"/><path class="cls-4" d="M11.32,21.34a.5.5,0,0,0,0-1,.5.5,0,0,0,0,1Z"/><path class="cls-4" d="M17.6,11.29a58.7,58.7,0,0,0-2.22,5.54c-.22.61.74.87,1,.27.67-1.79,1.29-3.59,2.13-5.3.28-.58-.59-1.09-.87-.51Z"/><path class="cls-4" d="M17.18,12.36a4.28,4.28,0,0,0-.37,1,5,5,0,0,1-.62,1.13l.92.38v.05c.47-.44-.24-1.15-.71-.71a1,1,0,0,0-.25.4c-.22.56.61.81.92.38a5.59,5.59,0,0,0,.59-1.07A6.08,6.08,0,0,1,18,12.86c.36-.53-.51-1-.86-.5Z"/><path class="cls-4" d="M16.5,14.26c-.3.53-.49,1.1-.81,1.63a.5.5,0,0,0,.86.5c.32-.52.51-1.1.81-1.63s-.55-1.07-.86-.5Z"/><path class="cls-4" d="M16.43,16.16a.5.5,0,0,0,0-1,.5.5,0,0,0,0,1Z"/><path class="cls-4" d="M16.33,16.57a.5.5,0,0,0,0-1,.5.5,0,0,0,0,1Z"/><path class="cls-4" d="M16.2,16.86a.5.5,0,0,0,0-1,.5.5,0,0,0,0,1Z"/><path class="cls-4" d="M16,17.25a.5.5,0,0,0,0-1,.5.5,0,0,0,0,1Z"/><path class="cls-4" d="M15.93,17.53a.5.5,0,0,0,0-1,.5.5,0,0,0,0,1Z"/><path class="cls-4" d="M15.34,11.07a.5.5,0,0,0,0-1,.5.5,0,0,0,0,1Z"/><path class="cls-4" d="M14.78,9.92a1.4,1.4,0,0,0,.05.41.25.25,0,0,0,.49-.13c0-.1,0-.19,0-.28a.25.25,0,0,0-.5,0Z"/><path class="cls-4" d="M14.85,9.62a1.22,1.22,0,0,0,.25.85c.2.25.55-.1.35-.35a.78.78,0,0,1-.1-.5.25.25,0,0,0-.5,0Z"/><path class="cls-4" d="M15,9a2.76,2.76,0,0,0-.1.63c0,.16.23.16.25,0a2.62,2.62,0,0,1,.09-.56c0-.16-.21-.23-.24-.07Z"/><path class="cls-4" d="M18.31,11.62a6.91,6.91,0,0,1-.36.72c-.07.14.15.27.22.13s.27-.52.38-.79-.18-.21-.24-.06Z"/><path class="cls-4" d="M18.38,11.6c-.1.23-.2.46-.32.68s.15.27.22.13.24-.49.34-.75-.18-.21-.24-.06Z"/><path class="cls-4" d="M18.52,11.58c-.14.29-.3.57-.46.84s.13.26.21.12.32-.55.47-.83-.15-.27-.22-.13Z"/><path class="cls-4" d="M17.56,7.75a.13.13,0,0,0,0-.25.13.13,0,0,0,0,.25Z"/><path class="cls-4" d="M17.54,7.76a.13.13,0,0,0,0-.25.13.13,0,0,0,0,.25Z"/><path class="cls-4" d="M17.54,7.75a.13.13,0,0,0,0-.25.13.13,0,0,0,0,.25Z"/><path class="cls-4" d="M29.74,20a.1.1,0,0,0,0-.2.1.1,0,0,0,0,.2Z"/><path class="cls-4" d="M19,12.56c0,.25.06.5.07.75s.17.14.19,0l.16-.69-.2-.05a1,1,0,0,1,0,.29l.18,0c-.07-.12-.08-.24-.16-.36s-.25,0-.18.11a3.78,3.78,0,0,1,.17.35.1.1,0,0,0,.18,0,1.36,1.36,0,0,0,.06-.29c0-.12-.17-.18-.2-.05l-.15.69.2,0c0-.25,0-.5-.07-.75s-.22-.13-.2,0Z"/><path class="cls-4" d="M19,12.58l.7.08c.05.09-.57,1.44.13.11a.1.1,0,0,0-.16-.12c-.39.36-.06,0-.39.47.19-.25,0,.07,0-.13a.1.1,0,0,0,.19.06l-.16.29c0,.11.14.18.19.08.22-.22.24-.33.05-.32q-.27.53,0,.24c0-.11-.17-.13-.19,0-.09.37,0,.27,0-.1a.1.1,0,0,0-.2,0l.09.08c0-.11-.2-.08-.19,0a4,4,0,0,1,0,.91c0,.11.18.14.2,0l-.12,0a.1.1,0,0,0,.19.06c.05-.14.09-.28.14-.42s-.15-.17-.2,0a.35.35,0,0,0,0,.51c0-.11-.17-.13-.19,0s-.15.53-.22.8a.1.1,0,1,0,.19.05l.09-.28c0-.12-.15-.18-.19,0-.13.36-.37.72-.47,1.09s.11.35,0,.63c0-.11-.14-.18-.18-.08a10.69,10.69,0,0,1-.71,1.8c-.07.11.1.21.17.1A4.1,4.1,0,0,0,18.3,17a.1.1,0,0,0-.17-.1,1.15,1.15,0,0,0-.37.67c0,.1.14.18.19.07s.18-.36.26-.55a.36.36,0,0,0,0-.46c0,.11.13.19.18.08a3.24,3.24,0,0,0,.26-.87c0-.11-.12-.19-.18-.08a2.06,2.06,0,0,0-.25.57.1.1,0,0,0,.18.08c.16-.34.34-.68.49-1a1.67,1.67,0,0,0,.08-.2.51.51,0,0,0,0-.69c0,.12.16.12.2,0a2.57,2.57,0,0,0,.21-.88c0-.09-.15-.14-.19,0s-.09.19-.13.29c.23-.1.24-.18,0-.25,0,.11.19.08.19,0-.16-.21-.19-.15-.08.19,0,.1.17.14.19,0,.12-.3.08-.32-.12,0,0,.12.16.12.2,0,.14-.33.27-.66.38-1,0-.11-.12-.16-.18-.07-.25.33-.08.47-.07-.1a.1.1,0,0,0-.2,0l.14.06c0-.13-.16-.18-.19-.05s-.16.53-.23.8a.1.1,0,0,0,.19.05c.41-1.15.05-.26,0,0a.1.1,0,0,0,.19.06,2.8,2.8,0,0,1,.52-.94c.07,0,0-.17-.07-.17a3.23,3.23,0,0,1-.93,0c-.13,0-.19.17-.06.19Z"/><path class="cls-4" d="M18.38,16.3a2.58,2.58,0,0,1-.16.73c0,.12.15.17.19,0a2.66,2.66,0,0,0,.17-.78c0-.13-.19-.13-.2,0Z"/><path class="cls-4" d="M18.27,16.51A2,2,0,0,0,18,17c0,.12.15.17.2,0a1.74,1.74,0,0,1,.23-.45c.08-.11-.1-.21-.17-.1Z"/><path class="cls-4" d="M19.08,14.53c-.1.3-.19.6-.29.91,0,.12.16.17.19.05.1-.3.2-.61.29-.91a.1.1,0,0,0-.19-.05Z"/><path class="cls-4" d="M17.65,18.19a9.27,9.27,0,0,1-.44,1.25c-.06.12.12.22.17.1a7.44,7.44,0,0,0,.46-1.3.1.1,0,0,0-.19,0Z"/><path class="cls-4" d="M17.44,18.51a18.72,18.72,0,0,1-.85,2.19l.19.08v-.05c0-.13-.16-.18-.19-.06l0,.06c0,.1.14.18.19.08a20.27,20.27,0,0,0,.86-2.24.1.1,0,0,0-.19-.06Z"/><path class="cls-4" d="M16.91,20c-.1.34-.19.68-.28,1,0,.12.16.17.19,0,.09-.34.19-.68.29-1,0-.12-.16-.17-.2-.05Z"/><path class="cls-4" d="M16.71,20.69a1.28,1.28,0,0,1-.23.52c-.07.11.1.21.18.1a1.46,1.46,0,0,0,.25-.57c0-.13-.17-.18-.2,0Z"/><path class="cls-5" d="M16.81,22.32c.07.82.13,1.64.19,2.45.05.64,1.05.65,1,0-.06-.81-.12-1.63-.19-2.45,0-.63-1-.64-1,0Z"/><path class="cls-5" d="M17,23.48a6.48,6.48,0,0,0-.1,1.08.5.5,0,0,0,1,0,4.25,4.25,0,0,0-.05-1.07c-.09-.56-1-.43-1,.13a13.67,13.67,0,0,1-.06,3.5c-.15.63.82.89,1,.27a14.42,14.42,0,0,0,.1-3.77l-1,.13a2.75,2.75,0,0,1,0,.81h1a3.64,3.64,0,0,1,.07-.81c.12-.63-.84-.9-1-.27Z"/><path class="cls-5" d="M17.21,27.75a.5.5,0,0,0,0-1,.5.5,0,0,0,0,1Z"/><path class="cls-5" d="M17.17,24.27l.06,1.48a4.77,4.77,0,0,1,0,1.36.5.5,0,0,0,1,.26,4.37,4.37,0,0,0,0-1.4c0-.56,0-1.13-.07-1.7s-1-.65-1,0Z"/><path class="cls-5" d="M18.08,27.64a.5.5,0,0,0,0-1,.5.5,0,0,0,0,1Z"/><path class="cls-5" d="M18.08,27.73a.5.5,0,0,0,0-1,.5.5,0,0,0,0,1Z"/><path class="cls-5" d="M18.13,27.82a.5.5,0,0,0,0-1,.5.5,0,0,0,0,1Z"/><path class="cls-5" d="M18.14,27.86a.5.5,0,0,0,0-1,.5.5,0,0,0,0,1Z"/><path class="cls-5" d="M17.25,27.88a.5.5,0,0,0,0-1,.5.5,0,0,0,0,1Z"/><path class="cls-5" d="M17.05,22.63a4.9,4.9,0,0,1,.22,1.66.5.5,0,0,0,1,0A5.41,5.41,0,0,0,18,22.37c-.21-.61-1.17-.35-1,.26Z"/><path class="cls-5" d="M17.37,22.1a2.47,2.47,0,0,0-.88-.53c-.12-.05-.2.12-.12.21a1.86,1.86,0,0,1,.48.76L17,22.4c-.17-.11-.23-.4-.37-.56a1,1,0,0,0-.38-.27l-.06.23a2.63,2.63,0,0,1,1.47.54c.09,0,.23,0,.18-.14a.36.36,0,0,0,0-.11c-.06-.15-.3-.09-.24.06s0,.07,0,.11l.19-.14a3,3,0,0,0-1.6-.57c-.11,0-.19.18-.07.23.4.19.43.62.75.84.09.05.23,0,.19-.14a2.38,2.38,0,0,0-.55-.88l-.12.21a2.25,2.25,0,0,1,.77.47.12.12,0,0,0,.17-.18Z"/><path class="cls-5" d="M17.78,21.93A8.12,8.12,0,0,0,14,21.3c-2.47-.06-5-.05-7.42,0a.13.13,0,0,0,0,.25c3.5,0,7,.22,10.49.22a.12.12,0,0,0,0-.24A2,2,0,0,0,16,21.4a.13.13,0,0,0,0,.25l1.7.5a.13.13,0,0,0,.12-.22Z"/><path class="cls-5" d="M17,21.71a.56.56,0,0,1,.34.39c.05.15.29.08.24-.07a.91.91,0,0,0-.45-.53c-.14-.08-.27.14-.13.21Z"/><path class="cls-4" d="M18.75,27.79h-13a.13.13,0,0,0,0,.25h13a.13.13,0,0,0,0-.25Z"/></svg>