<svg id="图层_1" data-name="图层 1" xmlns="http://www.w3.org/2000/svg" viewBox="0 0 40 40"><defs><style>.cls-1{fill:#fff;}.cls-2{fill:#ff9739;}.cls-3{fill:none;stroke:#f26716;stroke-miterlimit:10;stroke-width:0.2px;}.cls-4{fill:#f26716;}</style></defs><title>面性图标1</title><path class="cls-1" d="M4,39.5A3.5,3.5,0,0,1,.5,36V4A3.5,3.5,0,0,1,4,.5H36A3.5,3.5,0,0,1,39.5,4V36A3.5,3.5,0,0,1,36,39.5Z"/><path class="cls-2" d="M36,1a3,3,0,0,1,3,3V36a3,3,0,0,1-3,3H4a3,3,0,0,1-3-3V4A3,3,0,0,1,4,1H36m0-1H4A4,4,0,0,0,0,4V36a4,4,0,0,0,4,4H36a4,4,0,0,0,4-4V4a4,4,0,0,0-4-4Z"/><rect class="cls-3" x="34.41" y="15.77" width="0.75" height="7.5"/><polygon class="cls-3" points="34.78 24.02 35.14 23.22 34.43 23.22 34.78 24.02"/><rect class="cls-4" x="33.66" y="17.99" width="2.25" height="0.47"/><rect class="cls-4" x="33.85" y="18.46" width="1.88" height="1.13"/><rect class="cls-4" x="34.03" y="19.59" width="1.5" height="0.75"/><rect class="cls-4" x="34.13" y="20.33" width="1.31" height="0.75"/><rect class="cls-4" x="33.34" y="17.74" width="0.38" height="0.75"/><path class="cls-4" d="M33,20v-.19a.15.15,0,0,0-.14-.14h0a.14.14,0,0,0-.14.14V20a.14.14,0,0,0,.14.14h0A.14.14,0,0,0,33,20Z"/><rect class="cls-4" x="32.7" y="19.1" width="0.38" height="0.38"/><rect class="cls-4" x="32.51" y="19.43" width="0.75" height="0.28"/><path class="cls-4" d="M32.55,15.48a.4.4,0,1,1-.4.4A.4.4,0,0,1,32.55,15.48Z"/><path class="cls-4" d="M26.9,12.32a.63.63,0,0,1,.25,0c.29.08,1.11.3,1.35.34h0l0-.05-.26-.61-.39-.89,0-.1h0L20,7.65l-.56.5c-.13.13-.27.25-.37.34l1.43.8,1,.59c.2.11.2.21.2.43s0,.13,0,.13l4.64,2.05h.09s0,0,.06-.05A.35.35,0,0,1,26.9,12.32Z"/><path class="cls-4" d="M7.37,18.18a1,1,0,0,1-.21-.2l-.11-.23-.26-.55,6.59-7.41a.34.34,0,0,1,.2-.08,3.38,3.38,0,0,1,.49.11l.47.17a.34.34,0,0,1,.06.06c-.13.25-1.25,1.79-1.66,2.36a.64.64,0,0,0-.09.4s0,.09,0,.12h0l0,.06c-.09.13-1.65,1.9-2.67,3a.55.55,0,0,1-.23.19.4.4,0,0,0-.19-.05.25.25,0,0,0-.18.06Z"/><rect class="cls-4" x="4.09" y="27.93" width="13.2" height="4.42"/><path class="cls-4" d="M5.15,27.41l10.69,0-1-3.62s-.12,0-.28-.25-1.23-4.59-1.23-4.59,0-.18-.29-.14-5.14.89-5.31.92-.54.19-.65.79-.17,2.36-.17,2.36,0,.85-.59,1L5.66,24Zm3.48-6.75a.13.13,0,0,1,.11-.15l2.93-.46a.13.13,0,0,1,.15.11l.46,2.93a.13.13,0,0,1-.11.15l-.84.13a.14.14,0,0,0-.11.16l0,.28a.13.13,0,0,1-.11.15l-.74.12a.13.13,0,0,1-.15-.11l0-.29a.13.13,0,0,0-.15-.11l-.83.14a.14.14,0,0,1-.15-.12Z"/><path class="cls-4" d="M9.4,23.5,12,23.09l0,0A.14.14,0,0,0,12,23l-.43-2.67a.08.08,0,0,0-.08-.07L9,20.67s0,0,0,0a0,0,0,0,0,0,.05l.43,2.67a.08.08,0,0,0,.07.07Z"/><path class="cls-4" d="M29.67,19.09a.93.93,0,0,1,0,.13h3.68V15.89a.84.84,0,0,0-.84-.84.81.81,0,0,0-.6.26l-.89.9c0,.42.07.83.11,1.19a1.68,1.68,0,0,1-.43,1.23A1.61,1.61,0,0,1,29.67,19.09Zm2.2-3.21a.68.68,0,1,1,1.36,0,.68.68,0,0,1-1.36,0Z"/><path class="cls-4" d="M30.88,14.26l1,.66a.56.56,0,0,0,.47.05h.19a.93.93,0,0,1,.93.93,1.07,1.07,0,0,1,0,.32v-.32a.87.87,0,0,0-.88-.87.84.84,0,0,0-.62.26l-.45.45-.08-.05L31,15.4C31,14.94,30.91,14.53,30.88,14.26Z"/><path class="cls-4" d="M6.77,20.34l0-.22a1.05,1.05,0,0,1,.76-.79l.1,0L13,18.39h.08a.28.28,0,0,1,.2.08c.35-.41,2.14-2.5,3-3.35a1,1,0,0,1,.79-.36h.34a3,3,0,1,0-2-5.22,5.4,5.4,0,0,0-.52.62c-.18.22-1.54,2.33-1.61,2.41a.46.46,0,0,0,0,.22s0,.06,0,.08,0,.15-.1.28-2.59,3-2.69,3.07-.23.28-.44.28l-.12,0-.06,0L7.64,18.35a.47.47,0,0,1-.16.09l-.2.43h0A1.56,1.56,0,0,0,6.77,20.34Zm7.82-8.58a2.75,2.75,0,1,1,2.75,2.75A2.75,2.75,0,0,1,14.59,11.76ZM10.93,17.4l2.83-3.2a.64.64,0,0,1,.9,0,.63.63,0,0,1,.05.9l-2.82,3.19a.64.64,0,0,1-1-.84Z"/><path class="cls-4" d="M20.44,11.76a3,3,0,0,1-.64,1.85L27.59,17s.39.13.44.45a1.5,1.5,0,0,0,1.09,1.27,1.45,1.45,0,0,0,1.71-1.56c-.13-1.32-.31-3.46-.31-3.46l-.41-.24-1.35-.87a.3.3,0,0,1,0,.26.23.23,0,0,1-.22.1h-.07c-.31,0-1.38-.34-1.4-.35a.91.91,0,0,0-.16,0h-.07a.32.32,0,0,1-.28.17.54.54,0,0,1-.19,0c-.2-.07-4.57-2-4.6-2a.39.39,0,0,1-.27-.4.54.54,0,0,0,0-.16l0,0h0l-.8-.45-.27-.15L19,8.73a.13.13,0,0,1-.07-.1l-.24.2a.82.82,0,0,1-.18.09A3,3,0,0,1,20.44,11.76ZM29.19,18a.27.27,0,0,1,.54,0,.27.27,0,0,1-.54,0Zm-8.41-6.11a.63.63,0,0,1,.84-.31l5.69,2.52a.64.64,0,0,1,.33.84.64.64,0,0,1-.85.32L21.1,12.77A.62.62,0,0,1,20.78,11.93Z"/><path class="cls-4" d="M15.05,11.76a2.29,2.29,0,1,0,2.29-2.29A2.29,2.29,0,0,0,15.05,11.76Zm2.69,1.12a.34.34,0,0,1,.34-.34.34.34,0,1,1,0,.68A.34.34,0,0,1,17.74,12.88Zm-.17-2.51a.34.34,0,0,1,.34-.34.34.34,0,0,1,.33.34.34.34,0,1,1-.67,0ZM15.4,11.85a.34.34,0,0,1,.34-.34.34.34,0,0,1,0,.68A.34.34,0,0,1,15.4,11.85Z"/></svg>