<?xml version="1.0" standalone="no"?><!DOCTYPE svg PUBLIC "-//W3C//DTD SVG 1.1//EN" "http://www.w3.org/Graphics/SVG/1.1/DTD/svg11.dtd"><svg t="1563417490553" class="icon" viewBox="0 0 1024 1024" version="1.1" xmlns="http://www.w3.org/2000/svg" p-id="1798" xmlns:xlink="http://www.w3.org/1999/xlink" width="128" height="128"><defs><style type="text/css"></style></defs><path d="M832.862 868.221h-61.277c-7.598 15.914-23.675 27.034-42.407 27.034-25.99 0-47.137-21.222-47.137-47.288 0-26.078 21.147-47.288 47.137-47.288 24.292 0 44.105 18.606 46.621 42.319h57.062c20.782 0 37.689-16.97 37.689-37.828V231.44c0-20.87-16.907-37.828-37.702-37.828H772.59c-7.171 16.958-23.927 28.896-43.426 28.896-25.99 0-47.124-21.222-47.124-47.288s21.134-47.288 47.124-47.288c23.663 0 43.111 17.637 46.445 40.457h57.238c34.645 0 62.836 28.28 62.836 63.05l0.013 573.73c0.003 34.772-28.189 63.052-62.834 63.052z m-103.683-42.332c-12.127 0-22.002 9.913-22.002 22.078s9.875 22.065 22.002 22.065 21.99-9.9 21.99-22.065-9.863-22.078-21.99-22.078z m-0.013-672.733c-12.127 0-21.99 9.9-21.99 22.065s9.863 22.065 21.99 22.065 21.99-9.9 21.99-22.065-9.863-22.065-21.99-22.065zM709.277 729.98c0.981 3.988 1.233 7.85 0.742 11.574-0.503 3.749-1.988 6.73-4.466 8.969-2.491 2.252-6.466 3.371-11.926 3.371-10.416 0-17.373-7.737-20.845-23.172l-43.941-129.283H403.159l-29.047 85.933c-2.491 6.982-4.969 14.467-7.447 22.43-2.491 7.976-4.969 15.209-7.447 21.675-2.491 6.466-5.346 11.825-8.567 16.064-3.233 4.227-7.07 6.353-11.548 6.353-6.957 0-11.913-2.503-14.895-7.472-2.981-4.982-1.988-14.693 2.981-29.148l157.89-461.832c4.969-15.448 15.146-23.172 30.544-23.172 16.392 0 27.059 7.724 32.028 23.172L705.554 718.03a114.506 114.506 0 0 1 3.723 11.95zM516.365 268.148L414.33 569.31h204.071L516.365 268.148z m-221.556-45.639c-24.292 0-44.105-18.606-46.621-42.319h-57.05c-20.795 0-37.702 16.958-37.702 37.828v573.73c0 20.857 16.907 37.828 37.702 37.828h60.258c7.158-16.958 23.927-28.896 43.413-28.896 25.99 0 47.137 21.21 47.137 47.288 0 26.065-21.147 47.288-47.137 47.288-23.65 0-43.099-17.65-46.432-40.457h-57.238c-34.645 0-62.836-28.28-62.836-63.05v-573.73c0-34.771 28.191-63.05 62.836-63.05h61.277c7.586-15.926 23.663-27.034 42.394-27.034 25.99 0 47.137 21.222 47.137 47.288s-21.148 47.286-47.138 47.286z m0 647.523c12.127 0 22.002-9.9 22.002-22.065s-9.875-22.078-22.002-22.078c-12.114 0-21.99 9.913-21.99 22.078s9.875 22.065 21.99 22.065z m0-716.876c-12.114 0-21.99 9.9-21.99 22.065s9.875 22.065 21.99 22.065c12.127 0 22.002-9.9 22.002-22.065s-9.875-22.065-22.002-22.065z" p-id="1799" fill="#0a40e7"></path></svg>